                                                                        S      1
,,11HGPSmount v1,11HGPSmount v1,7Hunknown,7Hunknown,32,38,7,99,15,,1.,2,G      1
2HMM,1,0.08,15H20230823.184526,0.01,10000.,7Hunknown,7Hunknown,11,0,15H2G      2
0230602.061229;                                                         G      3
     186       1                                                00000000D      1
     186            -327       1       0                               0D      2
     514       2                                                00010000D      3
     514                       3       1                               0D      4
     510       5                                                00010000D      5
     510            -327       1       1                               0D      6
     510       6                                                00010000D      7
     510            -327       1       1                               0D      8
     510       7                                                00010000D      9
     510            -327       1       1                               0D     10
     510       8                                                00010000D     11
     510            -327       1       1                               0D     12
     510       9                                                00010000D     13
     510            -327       1       1                               0D     14
     510      10                                                00010000D     15
     510            -327       1       1                               0D     16
     510      11                                                00010000D     17
     510            -327       1       1                               0D     18
     510      12                                                00010000D     19
     510            -327       1       1                               0D     20
     510      13                                                00010000D     21
     510            -327       1       1                               0D     22
     510      14                                                00010000D     23
     510            -327       1       1                               0D     24
     510      15                                                00010000D     25
     510            -327       1       1                               0D     26
     510      16                                                00010000D     27
     510            -327       1       1                               0D     28
     510      17                                                00010000D     29
     510            -327       1       1                               0D     30
     510      18                                                00010000D     31
     510            -327       1       1                               0D     32
     510      19                                                00010000D     33
     510            -327       1       1                               0D     34
     510      20                                                00010000D     35
     510            -327       1       1                               0D     36
     510      21                                                00010000D     37
     510            -327       1       1                               0D     38
     510      22                                                00010000D     39
     510            -327       1       1                               0D     40
     510      23                                                00010000D     41
     510            -327       1       1                               0D     42
     510      24                                                00010000D     43
     510            -327       1       1                               0D     44
     510      25                                                00010000D     45
     510            -327       1       1                               0D     46
     510      26                                                00010000D     47
     510            -327       1       1                               0D     48
     510      27                                                00010000D     49
     510            -327       1       1                               0D     50
     510      28                                                00010000D     51
     510            -327       1       1                               0D     52
     510      29                                                00010000D     53
     510            -327       1       1                               0D     54
     510      30                                                00010000D     55
     510            -327       1       1                               0D     56
     510      31                                                00010000D     57
     510            -327       1       1                               0D     58
     510      32                                                00010000D     59
     510            -327       1       1                               0D     60
     508      33                                                00010000D     61
     508                       1       1                               0D     62
     508      34                                                00010000D     63
     508                       1       1                               0D     64
     508      35                                                00010000D     65
     508                       1       1                               0D     66
     508      36                                                00010000D     67
     508                       1       1                               0D     68
     508      37                                                00010000D     69
     508                       1       1                               0D     70
     508      38                                                00010000D     71
     508                       1       1                               0D     72
     508      39                                                00010000D     73
     508                       1       1                               0D     74
     508      40                                                00010000D     75
     508                       1       1                               0D     76
     508      41                                                00010000D     77
     508                       1       1                               0D     78
     508      42                                                00010000D     79
     508                       1       1                               0D     80
     508      43                                                00010000D     81
     508                       1       1                               0D     82
     508      44                                                00010000D     83
     508                       1       1                               0D     84
     508      45                                                00010000D     85
     508                       1       1                               0D     86
     508      46                                                00010000D     87
     508                       1       1                               0D     88
     508      47                                                00010000D     89
     508                       1       1                               0D     90
     508      48                                                00010000D     91
     508                       1       1                               0D     92
     508      49                                                00010000D     93
     508                       1       1                               0D     94
     508      50                                                00010000D     95
     508                       1       1                               0D     96
     508      51                                                00010000D     97
     508                       1       1                               0D     98
     508      52                                                00010000D     99
     508                       2       1                               0D    100
     508      54                                                00010000D    101
     508                       1       1                               0D    102
     508      55                                                00010000D    103
     508                       1       1                               0D    104
     508      56                                                00010000D    105
     508                       1       1                               0D    106
     508      57                                                00010000D    107
     508                       1       1                               0D    108
     508      58                                                00010000D    109
     508                       1       1                               0D    110
     508      59                                                00010000D    111
     508                       1       1                               0D    112
     508      60                                                00010000D    113
     508                       1       1                               0D    114
     508      61                                                00010000D    115
     508                       3       1                               0D    116
     508      64                                                00010000D    117
     508                       2       1                               0D    118
     508      66                                                00010000D    119
     508                       3       1                               0D    120
     126      69                                                00010000D    121
     126       0               2       0                               0D    122
     126      71                                                00010000D    123
     126       0               2       0                               0D    124
     126      73                                                00010000D    125
     126       0               2       0                               0D    126
     126      75                                                00010000D    127
     126       0               3       0                               0D    128
     126      78                                                00010000D    129
     126       0               2       0                               0D    130
     126      80                                                00010000D    131
     126       0               2       0                               0D    132
     126      82                                                00010000D    133
     126       0               2       0                               0D    134
     126      84                                                00010000D    135
     126       0               2       0                               0D    136
     126      86                                                00010000D    137
     126       0               2       0                               0D    138
     126      88                                                00010000D    139
     126       0               2       0                               0D    140
     126      90                                                00010000D    141
     126       0               2       0                               0D    142
     126      92                                                00010000D    143
     126       0               2       0                               0D    144
     126      94                                                00010000D    145
     126       0               2       0                               0D    146
     126      96                                                00010000D    147
     126       0               2       0                               0D    148
     126      98                                                00010000D    149
     126       0               2       0                               0D    150
     126     100                                                00010000D    151
     126       0               2       0                               0D    152
     126     102                                                00010000D    153
     126       0               2       0                               0D    154
     126     104                                                00010000D    155
     126       0               2       0                               0D    156
     126     106                                                00010000D    157
     126       0               2       0                               0D    158
     126     108                                                00010000D    159
     126       0               2       0                               0D    160
     126     110                                                00010000D    161
     126       0               2       0                               0D    162
     126     112                                                00010000D    163
     126       0               2       0                               0D    164
     126     114                                                00010000D    165
     126       0               2       0                               0D    166
     126     116                                                00010000D    167
     126       0               2       0                               0D    168
     126     118                                                00010000D    169
     126       0               2       0                               0D    170
     126     120                                                00010000D    171
     126       0               2       0                               0D    172
     126     122                                                00010000D    173
     126       0               2       0                               0D    174
     126     124                                                00010000D    175
     126       0               2       0                               0D    176
     126     126                                                00010000D    177
     126       0               2       0                               0D    178
     126     128                                                00010000D    179
     126       0               2       0                               0D    180
     126     130                                                00010000D    181
     126       0               2       0                               0D    182
     126     132                                                00010000D    183
     126       0               2       0                               0D    184
     126     134                                                00010000D    185
     126       0               2       0                               0D    186
     126     136                                                00010000D    187
     126       0               2       0                               0D    188
     126     138                                                00010000D    189
     126       0               2       0                               0D    190
     126     140                                                00010000D    191
     126       0               2       0                               0D    192
     126     142                                                00010000D    193
     126       0               3       0                               0D    194
     126     145                                                00010000D    195
     126       0               2       0                               0D    196
     126     147                                                00010000D    197
     126       0               2       0                               0D    198
     126     149                                                00010000D    199
     126       0               2       0                               0D    200
     126     151                                                00010000D    201
     126       0               2       0                               0D    202
     126     153                                                00010000D    203
     126       0               2       0                               0D    204
     126     155                                                00010000D    205
     126       0               2       0                               0D    206
     126     157                                                00010000D    207
     126       0               2       0                               0D    208
     126     159                                                00010000D    209
     126       0               2       0                               0D    210
     126     161                                                00010000D    211
     126       0               2       0                               0D    212
     126     163                                                00010000D    213
     126       0               2       0                               0D    214
     126     165                                                00010000D    215
     126       0               3       0                               0D    216
     126     168                                                00010000D    217
     126       0               2       0                               0D    218
     126     170                                                00010000D    219
     126       0               2       0                               0D    220
     126     172                                                00010000D    221
     126       0               2       0                               0D    222
     126     174                                                00010000D    223
     126       0               2       0                               0D    224
     126     176                                                00010000D    225
     126       0               2       0                               0D    226
     126     178                                                00010000D    227
     126       0               2       0                               0D    228
     126     180                                                00010000D    229
     126       0               2       0                               0D    230
     126     182                                                00010000D    231
     126       0               2       0                               0D    232
     126     184                                                00010000D    233
     126       0               2       0                               0D    234
     126     186                                                00010000D    235
     126       0               2       0                               0D    236
     126     188                                                00010000D    237
     126       0               2       0                               0D    238
     126     190                                                00010000D    239
     126       0               2       0                               0D    240
     126     192                                                00010000D    241
     126       0               2       0                               0D    242
     126     194                                                00010000D    243
     126       0               2       0                               0D    244
     126     196                                                00010000D    245
     126       0               2       0                               0D    246
     126     198                                                00010000D    247
     126       0               2       0                               0D    248
     126     200                                                00010000D    249
     126       0               2       0                               0D    250
     126     202                                                00010000D    251
     126       0               2       0                               0D    252
     126     204                                                00010000D    253
     126       0               2       0                               0D    254
     126     206                                                00010000D    255
     126       0               2       0                               0D    256
     126     208                                                00010000D    257
     126       0               2       0                               0D    258
     126     210                                                00010000D    259
     126       0               2       0                               0D    260
     126     212                                                00010000D    261
     126       0               2       0                               0D    262
     126     214                                                00010000D    263
     126       0               2       0                               0D    264
     128     216                                                00010000D    265
     128       0    -327       5       0                               0D    266
     128     221                                                00010000D    267
     128       0    -327       3       0                               0D    268
     128     224                                                00010000D    269
     128       0    -327       4       0                               0D    270
     128     228                                                00010000D    271
     128       0    -327       4       0                               0D    272
     128     232                                                00010000D    273
     128       0    -327       3       0                               0D    274
     128     235                                                00010000D    275
     128       0    -327       4       0                               0D    276
     128     239                                                00010000D    277
     128       0    -327       3       0                               0D    278
     128     242                                                00010000D    279
     128       0    -327       3       0                               0D    280
     128     245                                                00010000D    281
     128       0    -327       3       0                               0D    282
     128     248                                                00010000D    283
     128       0    -327       3       0                               0D    284
     128     251                                                00010000D    285
     128       0    -327       3       0                               0D    286
     128     254                                                00010000D    287
     128       0    -327       3       0                               0D    288
     128     257                                                00010000D    289
     128       0    -327       4       0                               0D    290
     128     261                                                00010000D    291
     128       0    -327       3       0                               0D    292
     128     264                                                00010000D    293
     128       0    -327       3       0                               0D    294
     128     267                                                00010000D    295
     128       0    -327       3       0                               0D    296
     128     270                                                00010000D    297
     128       0    -327       3       0                               0D    298
     128     273                                                00010000D    299
     128       0    -327       3       0                               0D    300
     128     276                                                00010000D    301
     128       0    -327       4       0                               0D    302
     128     280                                                00010000D    303
     128       0    -327       4       0                               0D    304
     128     284                                                00010000D    305
     128       0    -327       4       0                               0D    306
     128     288                                                00010000D    307
     128       0    -327       4       0                               0D    308
     128     292                                                00010000D    309
     128       0    -327       4       0                               0D    310
     128     296                                                00010000D    311
     128       0    -327       4       0                               0D    312
     128     300                                                00010000D    313
     128       0    -327       5       0                               0D    314
     128     305                                                00010000D    315
     128       0    -327       4       0                               0D    316
     128     309                                                00010000D    317
     128       0    -327       4       0                               0D    318
     128     313                                                00010000D    319
     128       0    -327       3       0                               0D    320
     502     316                                                00010000D    321
     502                      13       1                               0D    322
     504     329                                                00010001D    323
     504                      21       1                               0D    324
     406     350                                                00000000D    325
     406                       1      15                               0D    326
     314     351                                                00000200D    327
     314                       2       0                               0D    328
186,3,1,0,0,1,325;                                                     1P      1
514,28,5,1,7,1,9,1,11,1,13,1,15,1,17,1,19,1,21,1,23,1,25,1,27,1,       3P      2
29,1,31,1,33,1,35,1,37,1,39,1,41,1,43,1,45,1,47,1,49,1,51,1,53,        3P      3
1,55,1,57,1,59,1;                                                      3P      4
510,265,1,1,61;                                                        5P      5
510,267,1,1,63;                                                        7P      6
510,269,1,1,65;                                                        9P      7
510,271,1,1,67;                                                       11P      8
510,273,1,1,69;                                                       13P      9
510,275,1,1,71;                                                       15P     10
510,277,1,1,73;                                                       17P     11
510,279,1,1,75;                                                       19P     12
510,281,1,1,77;                                                       21P     13
510,283,1,1,79;                                                       23P     14
510,285,1,1,81;                                                       25P     15
510,287,1,1,83;                                                       27P     16
510,289,1,1,85;                                                       29P     17
510,291,1,1,87;                                                       31P     18
510,293,2,1,89,91;                                                    33P     19
510,295,2,1,93,95;                                                    35P     20
510,297,1,1,97;                                                       37P     21
510,299,1,1,99;                                                       39P     22
510,301,1,1,101;                                                      41P     23
510,303,1,1,103;                                                      43P     24
510,305,1,1,105;                                                      45P     25
510,307,1,1,107;                                                      47P     26
510,309,1,1,109;                                                      49P     27
510,311,1,1,111;                                                      51P     28
510,313,1,1,113;                                                      53P     29
510,315,1,1,115;                                                      55P     30
510,317,1,1,117;                                                      57P     31
510,319,1,1,119;                                                      59P     32
508,4,0,323,1,1,0,0,323,2,1,0,0,323,3,1,0,0,323,4,0,0;                61P     33
508,4,0,323,5,0,0,0,323,6,1,0,0,323,7,1,0,0,323,8,1,0;                63P     34
508,4,0,323,5,1,0,0,323,9,1,0,0,323,10,0,0,0,323,11,0,0;              65P     35
508,4,0,323,12,1,0,0,323,13,1,0,0,323,14,1,0,0,323,15,0,0;            67P     36
508,4,0,323,16,0,0,0,323,17,1,0,0,323,18,1,0,0,323,19,1,0;            69P     37
508,4,0,323,16,1,0,0,323,20,1,0,0,323,21,0,0,0,323,22,0,0;            71P     38
508,4,0,323,23,0,0,0,323,24,1,0,0,323,2,0,0,0,323,25,0,0;             73P     39
508,4,0,323,26,0,0,0,323,25,1,0,0,323,1,0,0,0,323,27,0,0;             75P     40
508,4,0,323,28,0,0,0,323,29,1,0,0,323,3,0,0,0,323,24,0,0;             77P     41
508,4,0,323,30,0,0,0,323,31,1,0,0,323,13,0,0,0,323,32,0,0;            79P     42
508,4,0,323,33,0,0,0,323,32,1,0,0,323,12,0,0,0,323,34,0,0;            81P     43
508,4,0,323,35,0,0,0,323,36,1,0,0,323,14,0,0,0,323,31,0,0;            83P     44
508,4,0,323,26,1,0,0,323,37,1,0,0,323,28,1,0,0,323,23,1,0;            85P     45
508,4,0,323,33,1,0,0,323,38,1,0,0,323,35,1,0,0,323,30,1,0;            87P     46
508,4,0,323,39,0,0,0,323,40,0,0,0,323,41,0,0,0,323,7,0,0;             89P     47
508,4,0,323,4,1,0,0,323,29,0,0,0,323,37,0,0,0,323,27,1,0;             91P     48
508,4,0,323,42,1,0,0,323,43,0,0,0,323,44,0,0,0,323,18,0,0;            93P     49
508,4,0,323,15,1,0,0,323,36,0,0,0,323,38,0,0,0,323,34,1,0;            95P     50
508,4,0,323,45,1,0,0,323,43,1,0,0,323,46,1,0,0,323,40,1,0;            97P     51
508,8,0,323,47,0,0,0,323,48,1,0,0,323,49,0,0,0,323,50,0,0,0,323,      99P     52
51,0,0,0,323,52,0,0,0,323,53,0,0,0,323,54,0,0;                        99P     53
508,4,0,323,49,1,0,0,323,55,1,0,0,323,56,0,0,0,323,57,0,0;           101P     54
508,4,0,323,50,1,0,0,323,57,1,0,0,323,58,0,0,0,323,59,0,0;           103P     55
508,4,0,323,51,1,0,0,323,59,1,0,0,323,60,0,0,0,323,61,0,0;           105P     56
508,4,0,323,52,1,0,0,323,61,1,0,0,323,62,0,0,0,323,63,0,0;           107P     57
508,4,0,323,53,1,0,0,323,63,1,0,0,323,64,0,0,0,323,65,0,0;           109P     58
508,4,0,323,54,1,0,0,323,65,1,0,0,323,66,0,0,0,323,67,0,0;           111P     59
508,4,0,323,47,1,0,0,323,67,1,0,0,323,68,0,0,0,323,69,0,0;           113P     60
508,12,0,323,69,1,0,0,323,70,0,0,0,323,20,0,0,0,323,19,0,0,0,        115P     61
323,44,1,0,0,323,45,0,0,0,323,39,1,0,0,323,6,0,0,0,323,11,1,0,0,     115P     62
323,71,0,0,0,323,55,0,0,0,323,48,0,0;                                115P     63
508,8,0,323,22,1,0,0,323,72,0,0,0,323,9,0,0,0,323,8,0,0,0,323,       117P     64
41,1,0,0,323,46,0,0,0,323,42,0,0,0,323,17,0,0;                       117P     65
508,12,0,323,72,1,0,0,323,21,1,0,0,323,70,1,0,0,323,68,1,0,0,        119P     66
323,66,1,0,0,323,64,1,0,0,323,62,1,0,0,323,60,1,0,0,323,58,1,0,      119P     67
0,323,56,1,0,0,323,71,1,0,0,323,10,1,0;                              119P     68
126,1,1,0,0,1,0,-0.4,-0.4,0.,0.,1.,1.,22.5,6.65,9.3,18.5,6.65,       121P     69
9.3,-0.4,0.,0.,0.,0.;                                                121P     70
126,1,1,0,0,1,0,-1.33,-1.33,0.,0.,1.,1.,18.5,6.65,9.3,18.5,          123P     71
-6.65,9.3,-1.33,0.,0.,0.,0.;                                         123P     72
126,1,1,0,0,1,0,-0.8,-0.8,-0.4,-0.4,1.,1.,18.5,-6.65,9.3,22.5,       125P     73
-6.65,9.3,-0.8,-0.4,0.,0.,0.;                                        125P     74
126,1,1,0,0,1,0,0.835000000000001,0.835000000000001,2.165,2.165,     127P     75
1.,1.,22.5,6.65,9.3,22.5,-6.65000000000001,9.3,                      127P     76
0.835000000000001,2.165,0.,0.,0.;                                    127P     77
126,1,1,0,0,1,0,-0.75,-0.75,2.25,2.25,1.,1.,15.,15.,7.8,15.,         129P     78
-15.,7.8,-0.75,2.25,0.,0.,0.;                                        129P     79
126,1,1,0,0,1,0,3.75,3.75,4.5,4.5,1.,1.,15.,15.,7.8,22.5,15.,        131P     80
7.8,3.75,4.5,0.,0.,0.;                                               131P     81
126,1,1,0,0,1,0,0.,0.,3.,3.,1.,1.,22.5,15.,7.8,22.5,-15.,7.8,0.,     133P     82
3.,0.,0.,0.;                                                         133P     83
126,1,1,0,0,1,0,0.,0.,0.75,0.75,1.,1.,22.5,-15.,7.8,15.,-15.,        135P     84
7.8,0.,0.75,0.,0.,0.;                                                135P     85
126,1,1,0,0,1,0,0.22,0.22,1.,1.,1.,1.,15.,-15.,7.8,15.,-15.,0.,      137P     86
0.22,1.,0.,0.,0.;                                                    137P     87
126,1,1,0,0,1,0,0.,0.,3.,3.,1.,1.,15.,15.,0.,15.,-15.,0.,0.,3.,      139P     88
0.,0.,0.;                                                            139P     89
126,1,1,0,0,1,0,0.22,0.22,1.,1.,1.,1.,15.,15.,7.8,15.,15.,0.,        141P     90
0.22,1.,0.,0.,0.;                                                    141P     91
126,1,1,0,0,1,0,-0.4,-0.4,0.,0.,1.,1.,-22.5,-6.65,9.3,-18.5,         143P     92
-6.65,9.3,-0.4,0.,0.,0.,0.;                                          143P     93
126,1,1,0,0,1,0,-1.33,-1.33,0.,0.,1.,1.,-18.5,-6.65,9.3,-18.5,       145P     94
6.65,9.3,-1.33,0.,0.,0.,0.;                                          145P     95
126,1,1,0,0,1,0,-0.8,-0.8,-0.4,-0.4,1.,1.,-18.5,6.65,9.3,-22.5,      147P     96
6.65,9.3,-0.8,-0.4,0.,0.,0.;                                         147P     97
126,1,1,0,0,1,0,0.835,0.835,2.165,2.165,1.,1.,-22.5,-6.65,9.3,       149P     98
-22.5,6.65,9.3,0.835,2.165,0.,0.,0.;                                 149P     99
126,1,1,0,0,1,0,-0.75,-0.75,2.25,2.25,1.,1.,-15.,-15.,7.8,-15.,      151P    100
15.,7.8,-0.75,2.25,0.,0.,0.;                                         151P    101
126,1,1,0,0,1,0,3.75,3.75,4.5,4.5,1.,1.,-15.,-15.,7.8,-22.5,         153P    102
-15.,7.8,3.75,4.5,0.,0.,0.;                                          153P    103
126,1,1,0,0,1,0,0.,0.,3.,3.,1.,1.,-22.5,-15.,7.8,-22.5,15.,7.8,      155P    104
0.,3.,0.,0.,0.;                                                      155P    105
126,1,1,0,0,1,0,0.,0.,0.75,0.75,1.,1.,-22.5,15.,7.8,-15.,15.,        157P    106
7.8,0.,0.75,0.,0.,0.;                                                157P    107
126,1,1,0,0,1,0,0.22,0.22,1.,1.,1.,1.,-15.,15.,7.8,-15.,15.,0.,      159P    108
0.22,1.,0.,0.,0.;                                                    159P    109
126,1,1,0,0,1,0,0.,0.,3.,3.,1.,1.,-15.,-15.,0.,-15.,15.,0.,0.,       161P    110
3.,0.,0.,0.;                                                         161P    111
126,1,1,0,0,1,0,0.22,0.22,1.,1.,1.,1.,-15.,-15.,7.8,-15.,-15.,       163P    112
0.,0.22,1.,0.,0.,0.;                                                 163P    113
126,1,1,0,0,1,0,-0.9975,-0.9975,0.3325,0.3325,1.,1.,18.5,-6.65,      165P    114
10.,18.5,6.65,10.,-0.9975,0.3325,0.,0.,0.;                           165P    115
126,1,1,0,0,1,0,0.,0.,0.07,0.07,1.,1.,18.5,-6.65,10.,18.5,-6.65,     167P    116
9.3,0.,0.07,0.,0.,0.;                                                167P    117
126,1,1,0,0,1,0,0.,0.,0.07,0.07,1.,1.,18.5,6.65,10.,18.5,6.65,       169P    118
9.3,0.,0.07,0.,0.,0.;                                                169P    119
126,1,1,0,0,1,0,0.725,0.725,1.125,1.125,1.,1.,18.5,6.65,10.,         171P    120
22.5,6.65,10.,0.725,1.125,0.,0.,0.;                                  171P    121
126,1,1,0,0,1,0,0.,0.,0.07,0.07,1.,1.,22.5,6.65,10.,22.5,6.65,       173P    122
9.3,0.,0.07,0.,0.,0.;                                                173P    123
126,1,1,0,0,1,0,-1.325,-1.325,-0.925,-0.925,1.,1.,22.5,-6.65,        175P    124
10.,18.5,-6.65,10.,-1.325,-0.925,0.,0.,0.;                           175P    125
126,1,1,0,0,1,0,0.,0.,0.07,0.07,1.,1.,22.5,-6.65,10.,22.5,-6.65,     177P    126
9.3,0.,0.07,0.,0.,0.;                                                177P    127
126,1,1,0,0,1,0,-0.9975,-0.9975,0.3325,0.3325,1.,1.,-18.5,6.65,      179P    128
10.,-18.5,-6.65,10.,-0.9975,0.3325,0.,0.,0.;                         179P    129
126,1,1,0,0,1,0,0.,0.,0.07,0.07,1.,1.,-18.5,6.65,10.,-18.5,6.65,     181P    130
9.3,0.,0.07,0.,0.,0.;                                                181P    131
126,1,1,0,0,1,0,0.,0.,0.07,0.07,1.,1.,-18.5,-6.65,10.,-18.5,         183P    132
-6.65,9.3,0.,0.07,0.,0.,0.;                                          183P    133
126,1,1,0,0,1,0,0.725,0.725,1.125,1.125,1.,1.,-18.5,-6.65,10.,       185P    134
-22.5,-6.65,10.,0.725,1.125,0.,0.,0.;                                185P    135
126,1,1,0,0,1,0,0.,0.,0.07,0.07,1.,1.,-22.5,-6.65,10.,-22.5,         187P    136
-6.65,9.3,0.,0.07,0.,0.,0.;                                          187P    137
126,1,1,0,0,1,0,-1.325,-1.325,-0.925,-0.925,1.,1.,-22.5,6.65,        189P    138
10.,-18.5,6.65,10.,-1.325,-0.925,0.,0.,0.;                           189P    139
126,1,1,0,0,1,0,0.,0.,0.07,0.07,1.,1.,-22.5,6.65,10.,-22.5,6.65,     191P    140
9.3,0.,0.07,0.,0.,0.;                                                191P    141
126,1,1,0,0,1,0,0.835000000000001,0.835000000000001,2.165,2.165,     193P    142
1.,1.,22.5,6.65,10.,22.5,-6.65000000000001,10.,                      193P    143
0.835000000000001,2.165,0.,0.,0.;                                    193P    144
126,1,1,0,0,1,0,0.835,0.835,2.165,2.165,1.,1.,-22.5,-6.65,10.,       195P    145
-22.5,6.65,10.,0.835,2.165,0.,0.,0.;                                 195P    146
126,1,1,0,0,1,0,-0.15,-0.15,0.22,0.22,1.,1.,22.5,15.,11.5,22.5,      197P    147
15.,7.8,-0.15,0.22,0.,0.,0.;                                         197P    148
126,1,1,0,0,1,0,-3.,-3.,0.,0.,1.,1.,22.5,-15.,11.5,22.5,15.,         199P    149
11.5,-3.,0.,0.,0.,0.;                                                199P    150
126,1,1,0,0,1,0,-0.22,-0.22,0.15,0.15,1.,1.,22.5,-15.,7.8,22.5,      201P    151
-15.,11.5,-0.22,0.15,0.,0.,0.;                                       201P    152
126,1,1,0,0,1,0,-0.22,-0.22,0.15,0.15,1.,1.,-22.5,-15.,7.8,          203P    153
-22.5,-15.,11.5,-0.22,0.15,0.,0.,0.;                                 203P    154
126,1,1,0,0,1,0,-3.,-3.,0.,0.,1.,1.,-22.5,15.,11.5,-22.5,-15.,       205P    155
11.5,-3.,0.,0.,0.,0.;                                                205P    156
126,1,1,0,0,1,0,-0.22,-0.22,0.15,0.15,1.,1.,-22.5,15.,7.8,-22.5,     207P    157
15.,11.5,-0.22,0.15,0.,0.,0.;                                        207P    158
126,1,1,0,0,1,0,-4.5,-4.5,0.,0.,1.,1.,22.5,15.,11.5,-22.5,15.,       209P    159
11.5,-4.5,0.,0.,0.,0.;                                               209P    160
126,1,1,0,0,1,0,-4.5,-4.5,0.,0.,1.,1.,-22.5,-15.,11.5,22.5,-15.,     211P    161
11.5,-4.5,0.,0.,0.,0.;                                               211P    162
126,1,1,0,0,1,0,2.775,2.775,3.,3.,1.,1.,-0.75,15.,10.,-0.75,         213P    163
12.75,10.,2.775,3.,0.,0.,0.;                                         213P    164
126,1,1,0,0,1,0,2.175,2.175,2.325,2.325,1.,1.,                       215P    165
-0.750000000000002,15.,10.,0.750000000000002,15.,10.,2.175,          215P    166
2.325,0.,0.,0.;                                                      215P    167
126,1,1,0,0,1,0,0.,0.,0.225,0.225,1.,1.,0.75,12.75,10.,0.75,15.,     217P    168
10.,0.,0.225,0.,0.,0.;                                               217P    169
126,1,1,0,0,1,0,0.,0.,1.2,1.2,1.,1.,12.75,12.75,10.,0.75,12.75,      219P    170
10.,0.,1.2,0.,0.,0.;                                                 219P    171
126,1,1,0,0,1,0,0.,0.,2.55,2.55,1.,1.,12.75,-12.75,10.,12.75,        221P    172
12.75,10.,0.,2.55,0.,0.,0.;                                          221P    173
126,1,1,0,0,1,0,0.,0.,2.55,2.55,1.,1.,-12.75,-12.75,10.,12.75,       223P    174
-12.75,10.,0.,2.55,0.,0.,0.;                                         223P    175
126,1,1,0,0,1,0,0.,0.,2.55,2.55,1.,1.,-12.75,12.75,10.,-12.75,       225P    176
-12.75,10.,0.,2.55,0.,0.,0.;                                         225P    177
126,1,1,0,0,1,0,0.,0.,1.2,1.2,1.,1.,-0.75,12.75,10.,-12.75,          227P    178
12.75,10.,0.,1.2,0.,0.,0.;                                           227P    179
126,1,1,0,0,1,0,0.,0.,1.,1.,1.,1.,0.750000000000002,15.,10.,         229P    180
0.750000000000002,15.,0.,0.,1.,0.,0.,0.;                             229P    181
126,1,1,0,0,1,0,0.,0.,0.225,0.225,1.,1.,0.75,12.75,0.,0.75,15.,      231P    182
0.,0.,0.225,0.,0.,0.;                                                231P    183
126,1,1,0,0,1,0,0.,0.,1.,1.,1.,1.,0.75,12.75,10.,0.75,12.75,0.,      233P    184
0.,1.,0.,0.,0.;                                                      233P    185
126,1,1,0,0,1,0,0.,0.,1.2,1.2,1.,1.,12.75,12.75,0.,0.75,12.75,       235P    186
0.,0.,1.2,0.,0.,0.;                                                  235P    187
126,1,1,0,0,1,0,0.,0.,1.,1.,1.,1.,12.75,12.75,10.,12.75,12.75,       237P    188
0.,0.,1.,0.,0.,0.;                                                   237P    189
126,1,1,0,0,1,0,0.,0.,2.55,2.55,1.,1.,12.75,-12.75,0.,12.75,         239P    190
12.75,0.,0.,2.55,0.,0.,0.;                                           239P    191
126,1,1,0,0,1,0,0.,0.,1.,1.,1.,1.,12.75,-12.75,10.,12.75,-12.75,     241P    192
0.,0.,1.,0.,0.,0.;                                                   241P    193
126,1,1,0,0,1,0,0.,0.,2.55,2.55,1.,1.,-12.75,-12.75,0.,12.75,        243P    194
-12.75,0.,0.,2.55,0.,0.,0.;                                          243P    195
126,1,1,0,0,1,0,0.,0.,1.,1.,1.,1.,-12.75,-12.75,10.,-12.75,          245P    196
-12.75,0.,0.,1.,0.,0.,0.;                                            245P    197
126,1,1,0,0,1,0,0.,0.,2.55,2.55,1.,1.,-12.75,12.75,0.,-12.75,        247P    198
-12.75,0.,0.,2.55,0.,0.,0.;                                          247P    199
126,1,1,0,0,1,0,0.,0.,1.,1.,1.,1.,-12.75,12.75,10.,-12.75,12.75,     249P    200
0.,0.,1.,0.,0.,0.;                                                   249P    201
126,1,1,0,0,1,0,0.,0.,1.2,1.2,1.,1.,-0.75,12.75,0.,-12.75,12.75,     251P    202
0.,0.,1.2,0.,0.,0.;                                                  251P    203
126,1,1,0,0,1,0,0.,0.,1.,1.,1.,1.,-0.75,12.75,10.,-0.75,12.75,       253P    204
0.,0.,1.,0.,0.,0.;                                                   253P    205
126,1,1,0,0,1,0,2.775,2.775,3.,3.,1.,1.,-0.75,15.,0.,-0.75,          255P    206
12.75,0.,2.775,3.,0.,0.,0.;                                          255P    207
126,1,1,0,0,1,0,0.,0.,1.,1.,1.,1.,-0.750000000000002,15.,10.,        257P    208
-0.750000000000002,15.,0.,0.,1.,0.,0.,0.;                            257P    209
126,1,1,0,0,1,0,0.75,0.75,2.175,2.175,1.,1.,-15.,15.,0.,             259P    210
-0.750000000000002,15.,0.,0.75,2.175,0.,0.,0.;                       259P    211
126,1,1,0,0,1,0,2.325,2.325,3.75,3.75,1.,1.,0.750000000000002,       261P    212
15.,0.,15.,15.,0.,2.325,3.75,0.,0.,0.;                               261P    213
126,1,1,0,0,1,0,0.75,0.75,3.75,3.75,1.,1.,15.,-15.,0.,-15.,-15.,     263P    214
0.,0.75,3.75,0.,0.,0.;                                               263P    215
128,1,1,1,1,0,0,1,0,0,-0.376,-0.376,0.0260000000000001,              265P    216
0.0260000000000001,-0.666,-0.666,0.666000000000001,                  265P    217
0.666000000000001,1.,1.,1.,1.,22.51,6.66,9.3,18.49,6.66,9.3,         265P    218
22.51,-6.66000000000001,9.3,18.49,-6.66000000000001,9.3,-0.376,      265P    219
0.0260000000000001,-0.666,0.666000000000001;                         265P    220
128,1,1,1,1,0,0,1,0,0,-0.376,-0.376,0.376,0.376,-1.501,-1.501,       267P    221
1.501,1.501,1.,1.,1.,1.,22.51,-15.01,7.8,14.99,-15.01,7.8,22.51,     267P    222
15.01,7.8,14.99,15.01,7.8,-0.376,0.376,-1.501,1.501;                 267P    223
128,1,1,1,1,0,0,1,0,0,-0.00100000000000022,-0.00100000000000022,     269P    224
3.001,3.001,0.219,0.219,1.001,1.001,1.,1.,1.,1.,15.,15.01,7.81,      269P    225
15.,-15.01,7.81,15.,15.01,-0.0099999999999989,15.,-15.01,            269P    226
-0.0099999999999989,-0.00100000000000022,3.001,0.219,1.001;          269P    227
128,1,1,1,1,0,0,1,0,0,-0.0260000000000001,-0.0260000000000001,       271P    228
0.376,0.376,-0.666,-0.666,0.666,0.666,1.,1.,1.,1.,-18.49,6.66,       271P    229
9.3,-22.51,6.66,9.3,-18.49,-6.66,9.3,-22.51,-6.66,9.3,               271P    230
-0.0260000000000001,0.376,-0.666,0.666;                              271P    231
128,1,1,1,1,0,0,1,0,0,-0.376,-0.376,0.376,0.376,-1.501,-1.501,       273P    232
1.501,1.501,1.,1.,1.,1.,-14.99,-15.01,7.8,-22.51,-15.01,7.8,         273P    233
-14.99,15.01,7.8,-22.51,15.01,7.8,-0.376,0.376,-1.501,1.501;         273P    234
128,1,1,1,1,0,0,1,0,0,-0.00100000000000022,-0.00100000000000022,     275P    235
3.001,3.001,0.219,0.219,1.001,1.001,1.,1.,1.,1.,-15.,-15.01,         275P    236
7.81,-15.,15.01,7.81,-15.,-15.01,-0.0099999999999989,-15.,15.01,     275P    237
-0.0099999999999989,-0.00100000000000022,3.001,0.219,1.001;          275P    238
128,1,1,1,1,0,0,1,0,0,-0.001,-0.001,1.331,1.331,-0.001,-0.001,       277P    239
0.071,0.071,1.,1.,1.,1.,18.5,6.66,10.01,18.5,-6.66,10.01,18.5,       277P    240
6.66,9.29,18.5,-6.66,9.29,-0.001,1.331,-0.001,0.071;                 277P    241
128,1,1,1,1,0,0,1,0,0,-0.001,-0.001,0.401,0.401,-0.001,-0.001,       279P    242
0.071,0.071,1.,1.,1.,1.,22.51,6.65,10.01,18.49,6.65,10.01,22.51,     279P    243
6.65,9.29,18.49,6.65,9.29,-0.001,0.401,-0.001,0.071;                 279P    244
128,1,1,1,1,0,0,1,0,0,-0.001,-0.001,0.401,0.401,-0.001,-0.001,       281P    245
0.071,0.071,1.,1.,1.,1.,18.49,-6.65,10.01,22.51,-6.65,10.01,         281P    246
18.49,-6.65,9.29,22.51,-6.65,9.29,-0.001,0.401,-0.001,0.071;         281P    247
128,1,1,1,1,0,0,1,0,0,-0.001,-0.001,1.331,1.331,-0.001,-0.001,       283P    248
0.071,0.071,1.,1.,1.,1.,-18.5,-6.66,10.01,-18.5,6.66,10.01,          283P    249
-18.5,-6.66,9.29,-18.5,6.66,9.29,-0.001,1.331,-0.001,0.071;          283P    250
128,1,1,1,1,0,0,1,0,0,-0.001,-0.001,0.401,0.401,-0.001,-0.001,       285P    251
0.071,0.071,1.,1.,1.,1.,-22.51,-6.65,10.01,-18.49,-6.65,10.01,       285P    252
-22.51,-6.65,9.29,-18.49,-6.65,9.29,-0.001,0.401,-0.001,0.071;       285P    253
128,1,1,1,1,0,0,1,0,0,-0.001,-0.001,0.401,0.401,-0.001,-0.001,       287P    254
0.071,0.071,1.,1.,1.,1.,-18.49,6.65,10.01,-22.51,6.65,10.01,         287P    255
-18.49,6.65,9.29,-22.51,6.65,9.29,-0.001,0.401,-0.001,0.071;         287P    256
128,1,1,1,1,0,0,1,0,0,-2.251,-2.251,-1.849,-1.849,-0.666,-0.666,     289P    257
0.666000000000001,0.666000000000001,1.,1.,1.,1.,18.49,6.66,10.,      289P    258
22.51,6.66,10.,18.49,-6.66000000000001,10.,22.51,                    289P    259
-6.66000000000001,10.,-2.251,-1.849,-0.666,0.666000000000001;        289P    260
128,1,1,1,1,0,0,1,0,0,1.849,1.849,2.251,2.251,-0.666,-0.666,         291P    261
0.666,0.666,1.,1.,1.,1.,-22.51,6.66,10.,-18.49,6.66,10.,-22.51,      291P    262
-6.66,10.,-18.49,-6.66,10.,1.849,2.251,-0.666,0.666;                 291P    263
128,1,1,1,1,0,0,1,0,0,-0.001,-0.001,3.001,3.001,-0.221,-0.221,       293P    264
0.151,0.151,1.,1.,1.,1.,22.5,-15.01,7.79,22.5,15.01,7.79,22.5,       293P    265
-15.01,11.51,22.5,15.01,11.51,-0.001,3.001,-0.221,0.151;             293P    266
128,1,1,1,1,0,0,1,0,0,-0.001,-0.001,3.001,3.001,-0.221,-0.221,       295P    267
0.151,0.151,1.,1.,1.,1.,-22.5,15.01,7.79,-22.5,-15.01,7.79,          295P    268
-22.5,15.01,11.51,-22.5,-15.01,11.51,-0.001,3.001,-0.221,0.151;      295P    269
128,1,1,1,1,0,0,1,0,0,-2.251,-2.251,2.251,2.251,-1.501,-1.501,       297P    270
1.501,1.501,1.,1.,1.,1.,-22.51,-15.01,11.5,22.51,-15.01,11.5,        297P    271
-22.51,15.01,11.5,22.51,15.01,11.5,-2.251,2.251,-1.501,1.501;        297P    272
128,1,1,1,1,0,0,1,0,0,-1.276,-1.276,1.276,1.276,-1.501,-1.501,       299P    273
1.276,1.276,1.,1.,1.,1.,-12.76,15.01,10.,12.76,15.01,10.,-12.76,     299P    274
-12.76,10.,12.76,-12.76,10.,-1.276,1.276,-1.501,1.276;               299P    275
128,1,1,1,1,0,0,1,0,0,-0.001,-0.001,0.226,0.226,-0.001,-0.001,       301P    276
1.001,1.001,1.,1.,1.,1.,0.75,12.74,10.01,0.75,15.01,10.01,0.75,      301P    277
12.74,-0.0099999999999989,0.75,15.01,-0.0099999999999989,-0.001,     301P    278
0.226,-0.001,1.001;                                                  301P    279
128,1,1,1,1,0,0,1,0,0,-0.001,-0.001,1.201,1.201,-0.001,-0.001,       303P    280
1.001,1.001,1.,1.,1.,1.,12.76,12.75,10.01,0.740000000000001,         303P    281
12.75,10.01,12.76,12.75,-0.0099999999999989,0.740000000000001,       303P    282
12.75,-0.0099999999999989,-0.001,1.201,-0.001,1.001;                 303P    283
128,1,1,1,1,0,0,1,0,0,-0.001,-0.001,2.551,2.551,-0.001,-0.001,       305P    284
1.001,1.001,1.,1.,1.,1.,12.75,-12.76,10.01,12.75,12.76,10.01,        305P    285
12.75,-12.76,-0.0099999999999989,12.75,12.76,                        305P    286
-0.0099999999999989,-0.001,2.551,-0.001,1.001;                       305P    287
128,1,1,1,1,0,0,1,0,0,-0.001,-0.001,2.551,2.551,-0.001,-0.001,       307P    288
1.001,1.001,1.,1.,1.,1.,-12.76,-12.75,10.01,12.76,-12.75,10.01,      307P    289
-12.76,-12.75,-0.0099999999999989,12.76,-12.75,                      307P    290
-0.0099999999999989,-0.001,2.551,-0.001,1.001;                       307P    291
128,1,1,1,1,0,0,1,0,0,-0.001,-0.001,2.551,2.551,-0.001,-0.001,       309P    292
1.001,1.001,1.,1.,1.,1.,-12.75,12.76,10.01,-12.75,-12.76,10.01,      309P    293
-12.75,12.76,-0.0099999999999989,-12.75,-12.76,                      309P    294
-0.0099999999999989,-0.001,2.551,-0.001,1.001;                       309P    295
128,1,1,1,1,0,0,1,0,0,-0.001,-0.001,1.201,1.201,-0.001,-0.001,       311P    296
1.001,1.001,1.,1.,1.,1.,-0.74,12.75,10.01,-12.76,12.75,10.01,        311P    297
-0.74,12.75,-0.0099999999999989,-12.76,12.75,                        311P    298
-0.0099999999999989,-0.001,1.201,-0.001,1.001;                       311P    299
128,1,1,1,1,0,0,1,0,0,-0.00100000000000022,-0.00100000000000022,     313P    300
0.226,0.226,-0.001,-0.001,1.001,1.001,1.,1.,1.,1.,-0.75,15.01,       313P    301
10.01,-0.75,12.74,10.01,-0.75,15.01,-0.0099999999999989,-0.75,       313P    302
12.74,-0.0099999999999989,-0.00100000000000022,0.226,-0.001,         313P    303
1.001;                                                               313P    304
128,1,1,1,1,0,0,1,0,0,-0.751,-0.751,3.751,3.751,-0.151,-0.151,       315P    305
1.001,1.001,1.,1.,1.,1.,-22.51,15.,11.51,22.51,15.,11.51,-22.51,     315P    306
15.,-0.0099999999999989,22.51,15.,-0.0099999999999989,-0.751,        315P    307
3.751,-0.151,1.001;                                                  315P    308
128,1,1,1,1,0,0,1,0,0,-0.751,-0.751,3.751,3.751,-0.151,-0.151,       317P    309
1.001,1.001,1.,1.,1.,1.,22.51,-15.,11.51,-22.51,-15.,11.51,          317P    310
22.51,-15.,-0.0099999999999989,-22.51,-15.,-0.0099999999999989,      317P    311
-0.751,3.751,-0.151,1.001;                                           317P    312
128,1,1,1,1,0,0,1,0,0,-1.501,-1.501,1.501,1.501,-1.501,-1.501,       319P    313
1.501,1.501,1.,1.,1.,1.,15.01,-15.01,0.,-15.01,-15.01,0.,15.01,      319P    314
15.01,0.,-15.01,15.01,0.,-1.501,1.501,-1.501,1.501;                  319P    315
502,48,22.5,6.65,9.3,18.5,6.65,9.3,18.5,-6.65,9.3,22.5,-6.65,        321P    316
9.3,15.,15.,7.8,15.,-15.,7.8,22.5,15.,7.8,22.5,-15.,7.8,15.,         321P    317
-15.,0.,15.,15.,0.,-22.5,-6.65,9.3,-18.5,-6.65,9.3,-18.5,6.65,       321P    318
9.3,-22.5,6.65,9.3,-15.,-15.,7.8,-15.,15.,7.8,-22.5,-15.,7.8,        321P    319
-22.5,15.,7.8,-15.,15.,0.,-15.,-15.,0.,18.5,-6.65,10.,18.5,6.65,     321P    320
10.,22.5,6.65,10.,22.5,-6.65,10.,-18.5,6.65,10.,-18.5,-6.65,10.,     321P    321
-22.5,-6.65,10.,-22.5,6.65,10.,22.5,15.,11.5,22.5,-15.,11.5,         321P    322
-22.5,-15.,11.5,-22.5,15.,11.5,-0.750000000000002,15.,10.,-0.75,     321P    323
12.75,10.,0.750000000000002,15.,10.,0.75,12.75,10.,12.75,12.75,      321P    324
10.,12.75,-12.75,10.,-12.75,-12.75,10.,-12.75,12.75,10.,             321P    325
0.750000000000002,15.,0.,0.75,12.75,0.,12.75,12.75,0.,12.75,         321P    326
-12.75,0.,-12.75,-12.75,0.,-12.75,12.75,0.,-0.75,12.75,0.,           321P    327
-0.750000000000002,15.,0.;                                           321P    328
504,72,121,321,1,321,2,123,321,2,321,3,125,321,3,321,4,127,321,      323P    329
1,321,4,129,321,5,321,6,131,321,5,321,7,133,321,7,321,8,135,321,     323P    330
8,321,6,137,321,6,321,9,139,321,10,321,9,141,321,5,321,10,143,       323P    331
321,11,321,12,145,321,12,321,13,147,321,13,321,14,149,321,11,        323P    332
321,14,151,321,15,321,16,153,321,15,321,17,155,321,17,321,18,        323P    333
157,321,18,321,16,159,321,16,321,19,161,321,20,321,19,163,321,       323P    334
15,321,20,165,321,21,321,22,167,321,21,321,3,169,321,22,321,2,       323P    335
171,321,22,321,23,173,321,23,321,1,175,321,24,321,21,177,321,24,     323P    336
321,4,179,321,25,321,26,181,321,25,321,13,183,321,26,321,12,185,     323P    337
321,26,321,27,187,321,27,321,11,189,321,28,321,25,191,321,28,        323P    338
321,14,193,321,23,321,24,195,321,27,321,28,197,321,29,321,7,199,     323P    339
321,30,321,29,201,321,8,321,30,203,321,17,321,31,205,321,32,321,     323P    340
31,207,321,18,321,32,209,321,29,321,32,211,321,31,321,30,213,        323P    341
321,33,321,34,215,321,33,321,35,217,321,36,321,35,219,321,37,        323P    342
321,36,221,321,38,321,37,223,321,39,321,38,225,321,40,321,39,        323P    343
227,321,34,321,40,229,321,35,321,41,231,321,42,321,41,233,321,       323P    344
36,321,42,235,321,43,321,42,237,321,37,321,43,239,321,44,321,43,     323P    345
241,321,38,321,44,243,321,45,321,44,245,321,39,321,45,247,321,       323P    346
46,321,45,249,321,40,321,46,251,321,47,321,46,253,321,34,321,47,     323P    347
255,321,48,321,47,257,321,33,321,48,259,321,19,321,48,261,321,       323P    348
41,321,10,263,321,9,321,20;                                          323P    349
406,1,5HBody2;                                                       325P    350
314,62.7450980392157,62.7450980392157,62.7450980392157,13HSteel      327P    351
- Satin;                                                             327P    352
S      1G      3D    328P    352                                        T      1
