                                                                        S      1
,,7Hmine v4,7Hmine v4,7Hunknown,7Hunknown,32,38,7,99,15,,1.,2,2HMM,1,   G      1
0.08,15H20230823.184531,0.01,10000.,7Hunknown,7Hunknown,11,0,15H20230531G      2
.101103;                                                                G      3
     186       1                                                00000000D      1
     186             -67       1       0                               0D      2
     514       2                                                00010000D      3
     514                       1       1                               0D      4
     510       3                                                00010000D      5
     510             -67       1       1                               0D      6
     510       4                                                00010000D      7
     510             -67       1       1                               0D      8
     510       5                                                00010000D      9
     510             -67       1       1                               0D     10
     510       6                                                00010000D     11
     510             -67       1       1                               0D     12
     510       7                                                00010000D     13
     510             -67       1       1                               0D     14
     508       8                                                00010000D     15
     508                       1       1                               0D     16
     508       9                                                00010000D     17
     508                       2       1                               0D     18
     508      11                                                00010000D     19
     508                       2       1                               0D     20
     508      13                                                00010000D     21
     508                       2       1                               0D     22
     508      15                                                00010000D     23
     508                       1       1                               0D     24
     126      16                                                00010000D     25
     126       0               4       0                               0D     26
     126      20                                                00010000D     27
     126       0               9       0                               0D     28
     126      29                                                00010000D     29
     126       0               9       0                               0D     30
     126      38                                                00010000D     31
     126       0               9       0                               0D     32
     126      47                                                00010000D     33
     126       0               9       0                               0D     34
     126      56                                                00010000D     35
     126       0               4       0                               0D     36
     126      60                                                00010000D     37
     126       0               6       0                               0D     38
     126      66                                                00010000D     39
     126       0               6       0                               0D     40
     126      72                                                00010000D     41
     126       0               4       0                               0D     42
     126      76                                                00010000D     43
     126       0               4       0                               0D     44
     126      80                                                00010000D     45
     126       0               9       0                               0D     46
     126      89                                                00010000D     47
     126       0               9       0                               0D     48
     126      98                                                00010000D     49
     126       0               4       0                               0D     50
     128     102                                                00010000D     51
     128       0     -67      24       0                               0D     52
     128     126                                                00010000D     53
     128       0     -67      24       0                               0D     54
     128     150                                                00010000D     55
     128       0     -67      22       0                               0D     56
     128     172                                                00010000D     57
     128       0     -67      22       0                               0D     58
     128     194                                                00010000D     59
     128       0     -67      18       0                               0D     60
     502     212                                                00010000D     61
     502                       7       1                               0D     62
     504     219                                                00010001D     63
     504                       3       1                               0D     64
     406     222                                                00000000D     65
     406                       1      15                               0D     66
     314     223                                                00000200D     67
     314                       2       0                               0D     68
186,3,1,0,0,1,65;                                                      1P      1
514,5,5,1,7,1,9,1,11,1,13,1;                                           3P      2
510,51,1,1,15;                                                         5P      3
510,53,1,1,17;                                                         7P      4
510,55,1,1,19;                                                         9P      5
510,57,1,1,21;                                                        11P      6
510,59,1,1,23;                                                        13P      7
508,4,0,63,1,1,0,0,63,2,0,0,0,63,3,0,0,0,63,1,0,0;                    15P      8
508,6,0,63,4,0,0,0,63,5,0,0,0,63,6,1,0,0,63,3,1,0,0,63,2,1,0,0,       17P      9
63,6,0,0;                                                             17P     10
508,6,0,63,7,0,0,0,63,8,0,0,0,63,9,1,0,0,63,5,1,0,0,63,4,1,0,0,       19P     11
63,9,0,0;                                                             19P     12
508,6,0,63,7,1,0,0,63,10,1,0,0,63,11,0,0,0,63,12,0,0,0,63,10,0,       21P     13
0,0,63,8,1,0;                                                         21P     14
508,4,0,63,13,1,0,0,63,12,1,0,0,63,11,1,0,0,63,13,0,0;                23P     15
126,1,1,0,0,1,0,-1.00186868640855,-1.00186868640855,                  25P     16
1.00186868640855,1.00186868640855,1.,1.,0.,4.44089209850063D-15,      25P     17
55.0000007450581,0.,-54.7956551012897,58.351446002615,                25P     18
-1.00186868640855,1.00186868640855,0.,0.,0.;                          25P     19
126,4,2,0,0,0,0,-1.5707963267949,-1.5707963267949,                    27P     20
-1.5707963267949,0.,0.,1.5707963267949,1.5707963267949,               27P     21
1.5707963267949,1.,0.707106781186548,1.,0.707106781186548,1.,         27P     22
3.35526618134884D-15,54.7956551012897,58.351446002615,                27P     23
54.7956551012897,54.7956551012897,58.351446002615,                    27P     24
54.7956551012897,0.,58.351446002615,54.7956551012897,                 27P     25
-54.7956551012897,58.351446002615,3.35526618134884D-15,               27P     26
-54.7956551012897,58.351446002615,-1.5707963267949,                   27P     27
1.5707963267949,0.,0.,0.;                                             27P     28
126,4,2,0,0,0,0,1.5707963267949,1.5707963267949,1.5707963267949,      29P     29
3.14159265358979,3.14159265358979,4.71238898038469,                   29P     30
4.71238898038469,4.71238898038469,1.,0.707106781186548,1.,            29P     31
0.707106781186548,1.,3.35526618134884D-15,-54.7956551012897,          29P     32
58.351446002615,-54.7956551012897,-54.7956551012897,                  29P     33
58.351446002615,-54.7956551012897,-6.71053236269767D-15,              29P     34
58.351446002615,-54.7956551012897,54.7956551012897,                   29P     35
58.351446002615,-1.00657985440465D-14,54.7956551012897,               29P     36
58.351446002615,1.5707963267949,4.71238898038469,0.,0.,0.;            29P     37
126,4,2,0,0,0,0,-1.5707963267949,-1.5707963267949,                    31P     38
-1.5707963267949,0.,0.,1.5707963267949,1.5707963267949,               31P     39
1.5707963267949,1.,0.707106781186548,1.,0.707106781186548,1.,         31P     40
3.3677768203196D-15,54.9999693407826,0.0175097468404672,              31P     41
54.9999693407826,54.9999693407826,0.0175097468404672,                 31P     42
54.9999693407826,0.,0.0175097468404672,54.9999693407826,              31P     43
-54.9999693407826,0.0175097468404672,3.3677768203196D-15,             31P     44
-54.9999693407826,0.0175097468404672,-1.5707963267949,                31P     45
1.5707963267949,0.,0.,0.;                                             31P     46
126,4,2,0,0,0,0,1.5707963267949,1.5707963267949,1.5707963267949,      33P     47
3.14159265358979,3.14159265358979,4.71238898038469,                   33P     48
4.71238898038469,4.71238898038469,1.,0.707106781186548,1.,            33P     49
0.707106781186548,1.,3.3677768203196D-15,-54.9999693407826,           33P     50
0.0175097468404672,-54.9999693407825,-54.9999693407826,               33P     51
0.0175097468404672,-54.9999693407826,-6.73555364063919D-15,           33P     52
0.0175097468404672,-54.9999693407826,54.9999693407825,                33P     53
0.0175097468404672,-1.01033304609588D-14,54.9999693407826,            33P     54
0.0175097468404672,1.5707963267949,4.71238898038469,0.,0.,0.;         33P     55
126,1,1,0,0,1,0,-0.531298896069525,-0.531298896069525,                35P     56
0.531298896069526,0.531298896069526,1.,1.,0.,-54.9999693407826,       35P     57
0.0175097468404628,0.,-54.7956551012897,58.351446002615,              35P     58
-0.531298896069525,0.531298896069526,0.,0.,0.;                        35P     59
126,4,2,0,0,0,0,-1.5707963267949,-1.5707963267949,                    37P     60
-1.5707963267949,0.,0.,1.5707963267949,1.5707963267949,               37P     61
1.5707963267949,1.,0.707106781186548,1.,0.707106781186548,1.,         37P     62
3.06161699786838D-15,50.,0.,50.,50.,0.,50.,0.,0.,50.,-50.,0.,         37P     63
3.06161699786838D-15,-50.,0.,-1.5707963267949,1.5707963267949,        37P     64
0.,0.,0.;                                                             37P     65
126,4,2,0,0,0,0,1.5707963267949,1.5707963267949,1.5707963267949,      39P     66
3.14159265358979,3.14159265358979,4.71238898038469,                   39P     67
4.71238898038469,4.71238898038469,1.,0.707106781186548,1.,            39P     68
0.707106781186548,1.,3.06161699786838D-15,-50.,0.,-50.,-50.,0.,       39P     69
-50.,-6.12323399573677D-15,0.,-50.,50.,0.,-9.18485099360515D-15,      39P     70
50.,0.,1.5707963267949,4.71238898038469,0.,0.,0.;                     39P     71
126,1,1,0,0,1,0,-0.0476190615234587,-0.0476190615234587,              41P     72
0.0476190615234588,0.0476190615234588,1.,1.,0.,-50.,                  41P     73
-1.61112442831346D-15,0.,-54.9999693407826,0.0175097468404689,        41P     74
-0.0476190615234587,0.0476190615234588,0.,0.,0.;                      41P     75
126,1,1,0,0,1,0,-0.531458222694527,-0.531458222694527,                43P     76
0.531458222694527,0.531458222694527,1.,1.,0.,-50.,                    43P     77
-4.44089209850063D-15,0.,-49.8142317619457,53.0467689353441,          43P     78
-0.531458222694527,0.531458222694527,0.,0.,0.;                        43P     79
126,4,2,0,0,0,0,-1.5707963267949,-1.5707963267949,                    45P     80
-1.5707963267949,0.,0.,1.5707963267949,1.5707963267949,               45P     81
1.5707963267949,1.,0.707106781186548,1.,0.707106781186548,1.,         45P     82
3.05024197396256D-15,49.8142317619457,53.0467689353441,               45P     83
49.8142317619457,49.8142317619457,53.0467689353441,                   45P     84
49.8142317619457,0.,53.0467689353441,49.8142317619457,                45P     85
-49.8142317619457,53.0467689353441,3.05024197396256D-15,              45P     86
-49.8142317619457,53.0467689353441,-1.5707963267949,                  45P     87
1.5707963267949,0.,0.,0.;                                             45P     88
126,4,2,0,0,0,0,1.5707963267949,1.5707963267949,1.5707963267949,      47P     89
3.14159265358979,3.14159265358979,4.71238898038469,                   47P     90
4.71238898038469,4.71238898038469,1.,0.707106781186548,1.,            47P     91
0.707106781186548,1.,3.05024197396256D-15,-49.8142317619457,          47P     92
53.0467689353441,-49.8142317619457,-49.8142317619457,                 47P     93
53.0467689353441,-49.8142317619457,-6.10048394792512D-15,             47P     94
53.0467689353441,-49.8142317619457,49.8142317619457,                  47P     95
53.0467689353441,-9.15072592188768D-15,49.8142317619457,              47P     96
53.0467689353441,1.5707963267949,4.71238898038469,0.,0.,0.;           47P     97
126,1,1,0,0,1,0,-1.00186868705618,-1.00186868705618,                  49P     98
1.00186868523001,1.00186868523001,1.,1.,0.,0.,50.,0.,                 49P     99
-49.8142317619457,53.0467689353441,-1.00186868705618,                 49P    100
1.00186868523001,0.,0.,0.;                                            49P    101
128,1,8,1,2,0,1,0,0,1,-1.00186868640855,-1.00186868640855,            51P    102
1.00186868640855,1.00186868640855,-3.14159265358979,                  51P    103
-3.14159265358979,-3.14159265358979,-1.5707963267949,                 51P    104
-1.5707963267949,0.,0.,1.5707963267949,1.5707963267949,               51P    105
3.14159265358979,3.14159265358979,3.14159265358979,1.,1.,             51P    106
0.707106781186548,0.707106781186548,1.,1.,0.707106781186548,          51P    107
0.707106781186548,1.,1.,0.707106781186548,0.707106781186548,1.,       51P    108
1.,0.707106781186548,0.707106781186548,1.,1.,0.,                      51P    109
-54.7956551012897,58.351446002615,0.,4.44089209850063D-15,            51P    110
55.0000007450581,-54.7956551012897,-54.7956551012897,                 51P    111
58.351446002615,4.44089209850063D-15,4.44089209850063D-15,            51P    112
55.0000007450581,-54.7956551012897,0.,58.351446002615,                51P    113
4.44089209850063D-15,0.,55.0000007450581,-54.7956551012897,           51P    114
54.7956551012897,58.351446002615,4.44089209850063D-15,                51P    115
-4.44089209850063D-15,55.0000007450581,0.,54.7956551012897,           51P    116
58.351446002615,0.,-4.44089209850063D-15,55.0000007450581,            51P    117
54.7956551012897,54.7956551012897,58.351446002615,                    51P    118
-4.44089209850063D-15,-4.44089209850063D-15,55.0000007450581,         51P    119
54.7956551012897,0.,58.351446002615,-4.44089209850063D-15,0.,         51P    120
55.0000007450581,54.7956551012897,-54.7956551012897,                  51P    121
58.351446002615,-4.44089209850063D-15,4.44089209850063D-15,           51P    122
55.0000007450581,0.,-54.7956551012897,58.351446002615,0.,             51P    123
4.44089209850063D-15,55.0000007450581,-1.00186868640855,              51P    124
1.00186868640855,-3.14159265358979,3.14159265358979;                  51P    125
128,1,8,1,2,0,1,0,0,1,-0.531298896069526,-0.531298896069526,          53P    126
0.531298896069525,0.531298896069525,-3.14159265358979,                53P    127
-3.14159265358979,-3.14159265358979,-1.5707963267949,                 53P    128
-1.5707963267949,0.,0.,1.5707963267949,1.5707963267949,               53P    129
3.14159265358979,3.14159265358979,3.14159265358979,1.,1.,             53P    130
0.707106781186548,0.707106781186548,1.,1.,0.707106781186548,          53P    131
0.707106781186548,1.,1.,0.707106781186548,0.707106781186548,1.,       53P    132
1.,0.707106781186548,0.707106781186548,1.,1.,0.,                      53P    133
-54.9999693407826,0.0175097468404628,0.,-54.7956551012897,            53P    134
58.351446002615,-54.9999693407826,-54.9999693407826,                  53P    135
0.0175097468404628,-54.7956551012897,-54.7956551012897,               53P    136
58.351446002615,-54.9999693407826,0.,0.0175097468404628,              53P    137
-54.7956551012897,0.,58.351446002615,-54.9999693407826,               53P    138
54.9999693407826,0.0175097468404628,-54.7956551012897,                53P    139
54.7956551012897,58.351446002615,0.,54.9999693407826,                 53P    140
0.0175097468404628,0.,54.7956551012897,58.351446002615,               53P    141
54.9999693407826,54.9999693407826,0.0175097468404628,                 53P    142
54.7956551012897,54.7956551012897,58.351446002615,                    53P    143
54.9999693407826,0.,0.0175097468404628,54.7956551012897,0.,           53P    144
58.351446002615,54.9999693407826,-54.9999693407826,                   53P    145
0.0175097468404628,54.7956551012897,-54.7956551012897,                53P    146
58.351446002615,0.,-54.9999693407826,0.0175097468404628,0.,           53P    147
-54.7956551012897,58.351446002615,-0.531298896069526,                 53P    148
0.531298896069525,-3.14159265358979,3.14159265358979;                 53P    149
128,1,8,1,2,0,1,0,0,1,-0.0476190615234588,-0.0476190615234588,        55P    150
0.0476190615234587,0.0476190615234587,-3.14159265358979,              55P    151
-3.14159265358979,-3.14159265358979,-1.5707963267949,                 55P    152
-1.5707963267949,0.,0.,1.5707963267949,1.5707963267949,               55P    153
3.14159265358979,3.14159265358979,3.14159265358979,1.,1.,             55P    154
0.707106781186548,0.707106781186548,1.,1.,0.707106781186548,          55P    155
0.707106781186548,1.,1.,0.707106781186548,0.707106781186548,1.,       55P    156
1.,0.707106781186548,0.707106781186548,1.,1.,0.,-50.,                 55P    157
-1.61112442831346D-15,0.,-54.9999693407826,0.0175097468404689,        55P    158
-50.,-50.,-1.61112442831346D-15,-54.9999693407826,                    55P    159
-54.9999693407826,0.0175097468404689,-50.,0.,                         55P    160
-1.61112442831346D-15,-54.9999693407826,0.,0.0175097468404689,        55P    161
-50.,50.,-1.61112442831346D-15,-54.9999693407826,                     55P    162
54.9999693407826,0.0175097468404689,0.,50.,                           55P    163
-1.61112442831346D-15,0.,54.9999693407826,0.0175097468404689,         55P    164
50.,50.,-1.61112442831346D-15,54.9999693407826,54.9999693407826,      55P    165
0.0175097468404689,50.,0.,-1.61112442831346D-15,                      55P    166
54.9999693407826,0.,0.0175097468404689,50.,-50.,                      55P    167
-1.61112442831346D-15,54.9999693407826,-54.9999693407826,             55P    168
0.0175097468404689,0.,-50.,-1.61112442831346D-15,0.,                  55P    169
-54.9999693407826,0.0175097468404689,-0.0476190615234588,             55P    170
0.0476190615234587,-3.14159265358979,3.14159265358979;                55P    171
128,1,8,1,2,0,1,0,0,1,-0.531458222694527,-0.531458222694527,          57P    172
0.531458222694527,0.531458222694527,-3.14159265358979,                57P    173
-3.14159265358979,-3.14159265358979,-1.5707963267949,                 57P    174
-1.5707963267949,0.,0.,1.5707963267949,1.5707963267949,               57P    175
3.14159265358979,3.14159265358979,3.14159265358979,1.,1.,             57P    176
0.707106781186548,0.707106781186548,1.,1.,0.707106781186548,          57P    177
0.707106781186548,1.,1.,0.707106781186548,0.707106781186548,1.,       57P    178
1.,0.707106781186548,0.707106781186548,1.,1.,0.,                      57P    179
-49.8142317619457,53.0467689353441,0.,-50.,                           57P    180
-4.44089209850063D-15,-49.8142317619457,-49.8142317619457,            57P    181
53.0467689353441,-50.,-50.,-4.44089209850063D-15,                     57P    182
-49.8142317619457,0.,53.0467689353441,-50.,0.,                        57P    183
-4.44089209850063D-15,-49.8142317619457,49.8142317619457,             57P    184
53.0467689353441,-50.,50.,-4.44089209850063D-15,0.,                   57P    185
49.8142317619457,53.0467689353441,0.,50.,-4.44089209850063D-15,       57P    186
49.8142317619457,49.8142317619457,53.0467689353441,50.,50.,           57P    187
-4.44089209850063D-15,49.8142317619457,0.,53.0467689353441,50.,       57P    188
0.,-4.44089209850063D-15,49.8142317619457,-49.8142317619457,          57P    189
53.0467689353441,50.,-50.,-4.44089209850063D-15,0.,                   57P    190
-49.8142317619457,53.0467689353441,0.,-50.,                           57P    191
-4.44089209850063D-15,-0.531458222694527,0.531458222694527,           57P    192
-3.14159265358979,3.14159265358979;                                   57P    193
128,1,8,1,2,0,1,0,0,1,-1.00186868523001,-1.00186868523001,            59P    194
1.00186868705618,1.00186868705618,-3.14159265358979,                  59P    195
-3.14159265358979,-3.14159265358979,-1.5707963267949,                 59P    196
-1.5707963267949,0.,0.,1.5707963267949,1.5707963267949,               59P    197
3.14159265358979,3.14159265358979,3.14159265358979,1.,1.,             59P    198
0.707106781186548,0.707106781186548,1.,1.,0.707106781186548,          59P    199
0.707106781186548,1.,1.,0.707106781186548,0.707106781186548,1.,       59P    200
1.,0.707106781186548,0.707106781186548,1.,1.,0.,0.,50.,0.,            59P    201
-49.8142317619457,53.0467689353441,0.,0.,50.,-49.8142317619457,       59P    202
-49.8142317619457,53.0467689353441,0.,0.,50.,-49.8142317619457,       59P    203
0.,53.0467689353441,0.,0.,50.,-49.8142317619457,                      59P    204
49.8142317619457,53.0467689353441,0.,0.,50.,0.,49.8142317619457,      59P    205
53.0467689353441,0.,0.,50.,49.8142317619457,49.8142317619457,         59P    206
53.0467689353441,0.,0.,50.,49.8142317619457,0.,53.0467689353441,      59P    207
0.,0.,50.,49.8142317619457,-49.8142317619457,53.0467689353441,        59P    208
0.,0.,50.,0.,-49.8142317619457,53.0467689353441,                      59P    209
-1.00186868523001,1.00186868705618,-3.14159265358979,                 59P    210
3.14159265358979;                                                     59P    211
502,10,0.,0.,55.0000007450581,0.,-54.7956551012897,                   61P    212
58.351446002615,0.,54.7956551012897,58.351446002615,0.,               61P    213
54.9999693407826,0.0175097468404705,0.,-54.9999693407826,             61P    214
0.0175097468404628,0.,50.,0.,0.,-50.,-1.61112442831346D-15,0.,        61P    215
-49.8142317619457,53.0467689353441,0.,49.8142317619457,               61P    216
53.0467689353441,4.53998660887578D-8,2.77994016006109D-24,            61P    217
50.0000000027768;                                                     61P    218
504,13,25,61,1,61,2,27,61,3,61,2,29,61,2,61,3,31,61,4,61,5,33,        63P    219
61,5,61,4,35,61,5,61,2,37,61,6,61,7,39,61,7,61,6,41,61,7,61,5,        63P    220
43,61,7,61,8,45,61,9,61,8,47,61,8,61,9,49,61,10,61,8;                 63P    221
406,1,5HBody1;                                                        65P    222
314,62.7450980392157,62.7450980392157,62.7450980392157,13HSteel       67P    223
- Satin;                                                              67P    224
S      1G      3D     68P    224                                        T      1
