0
SECTION
2
HEADER
9
$INSUNITS
70
4
9
$ACADVER
1
AC1014
9
$HANDSEED
5
FFFF
0
ENDSEC
0
SECTION
2
TABLES
0
TABLE
2
VPORT
5
8
100
AcDbSymbolTable
0
ENDTAB
0
TABLE
2
LTYPE
5
5
100
AcDbSymbolTable
0
LTYPE
5
14
100
AcDbSymbolTableRecord
100
AcDbLinetypeTableRecord
2
BYBLOCK
70
0
0
LTYPE
5
15
100
AcDbSymbolTableRecord
100
AcDbLinetypeTableRecord
2
BYLAYER
70
0
0
ENDTAB
0
TABLE
2
LAYER
5
2
100
AcDbSymbolTable
70
2
0
LAYER
5
50
100
AcDbSymbolTableRecord
100
AcDbLayerTableRecord
2
0
70
0
6
CONTINUOUS
0
ENDTAB
0
TABLE
2
STYLE
5
3
100
AcDbSymbolTable
70
1
0
STYLE
5
11
100
AcDbSymbolTableRecord
100
AcDbTextStyleTableRecord
2
STANDARD
70
0
0
ENDTAB
0
TABLE
2
VIEW
5
6
100
AcDbSymbolTable
70
0
0
ENDTAB
0
TABLE
2
UCS
5
7
100
AcDbSymbolTable
70
0
0
ENDTAB
0
TABLE
2
APPID
5
9
100
AcDbSymbolTable
70
2
0
APPID
5
12
100
AcDbSymbolTableRecord
100
AcDbRegAppTableRecord
2
ACAD
70
0
0
ENDTAB
0
TABLE
2
DIMSTYLE
5
A
100
AcDbSymbolTable
70
1
0
ENDTAB
0
TABLE
2
BLOCK_RECORD
5
1
100
AcDbSymbolTable
70
1
0
BLOCK_RECORD
5
1F
100
AcDbSymbolTableRecord
100
AcDbBlockTableRecord
2
*MODEL_SPACE
0
BLOCK_RECORD
5
1B
100
AcDbSymbolTableRecord
100
AcDbBlockTableRecord
2
*PAPER_SPACE
0
ENDTAB
0
ENDSEC
0
SECTION
2
BLOCKS
0
BLOCK
5
20
100
AcDbEntity
100
AcDbBlockBegin
2
*MODEL_SPACE
0
ENDBLK
5
21
100
AcDbEntity
100
AcDbBlockEnd
0
BLOCK
5
1C
100
AcDbEntity
100
AcDbBlockBegin
2
*PAPER_SPACE
0
ENDBLK
5
1D
100
AcDbEntity
100
AcDbBlockEnd
0
ENDSEC
0
SECTION
2
ENTITIES
0
LWPOLYLINE
5
100
100
AcDbEntity
8
0
100
AcDbPolyline
90
44
70
1
43
0.0
10
3.4399999999999897
20
4.5006601717798125
10
-3.4399999999999986
20
4.5006601717798214
10
-5.4993398282201644
20
6.5599999999999934
10
-5.4993398282201644
20
8.2000000000001734
10
-2.8400000000005399
20
8.2000000000001645
10
-4.6400000000001329
20
9.999999999999762
10
-9.9999999999999893
20
9.9999999999998561
10
-9.9999999999999911
20
4.6400000000000121
10
-8.1999999999999815
20
2.8399999999999981
10
-8.1999999999999815
20
5.4993398282200987
10
-6.5599999999999987
20
5.4993398282200987
10
-4.5006601717792343
20
3.4399999999993325
10
-4.5006601717792405
20
-3.4399999999993236
10
-6.5600000000000041
20
-5.4993398282200845
10
-8.1999999999999869
20
-5.4993398282200845
10
-8.1999999999999869
20
-2.8399999999999848
10
-9.9999999999999947
20
-4.6399999999999952
10
-9.9999999999999929
20
-9.9999999999998543
10
-4.6400000000002812
20
-9.9999999999998401
10
-2.8400000000005354
20
-8.2000000000000917
10
-5.4993398282201706
20
-8.2000000000001005
10
-5.4993398282201689
20
-6.5599999999999836
10
-3.4399999999999986
20
-4.5006601717798134
10
3.4399999999999897
20
-4.5006601717798134
10
5.4993398282201618
20
-6.5599999999999881
10
5.4993398282201671
20
-8.2000000000001592
10
2.8400000000009662
20
-8.2000000000001485
10
4.640000000000553
20
-9.9999999999998437
10
9.999999999999984
20
-9.999999999999849
10
9.9999999999999893
20
-4.6400000000000086
10
8.199999999999978
20
-2.8399999999999936
10
8.199999999999978
20
-5.4993398282200934
10
6.5599999999999898
20
-5.4993398282200934
10
4.5006601717792254
20
-3.4399999999993236
10
4.5006601717791828
20
3.4399999999992792
10
6.5600000000000165
20
5.499339828220112
10
8.1999999999999833
20
5.4993398282200525
10
8.1999999999999833
20
2.8399999999999848
10
9.9999999999999929
20
4.6399999999999988
10
9.9999999999999929
20
9.9999999999997549
10
4.6400000000005459
20
9.9999999999997531
10
2.8400000000009462
20
8.2000000000001414
10
5.4993398282201671
20
8.2000000000001556
10
5.4993398282201671
20
6.559999999999989
0
LINE
5
101
100
AcDbEntity
8
0
100
AcDbLine
10
2.3571572875263636
20
-10.199999999999845
30
0
11
2.3571572875263636
21
-8.0000000000001528
31
0
0
LWPOLYLINE
5
102
100
AcDbEntity
8
0
100
AcDbPolyline
90
41
70
1
43
0.0
10
5.299339828220166
20
8.0000000000001528
10
5.299339828220166
20
6.642842712474609
10
3.3571572875253697
20
4.7006601717798127
10
-3.3571572875253786
20
4.7006601717798215
10
-5.2993398282201643
20
6.6428427124746134
10
-5.299339828220166
20
8.0000000000001723
10
-2.3571572875259195
20
8.0000000000001616
10
-4.5571572875255111
20
10.199999999999761
10
-10.199999999999989
20
10.199999999999857
10
-10.199999999999992
20
4.5571572875253921
10
-7.9999999999999805
20
2.3571572875253777
10
-7.9999999999999805
20
5.2993398282201012
10
-6.6428427124746197
20
5.2993398282201012
10
-4.7006601717792336
20
3.3571572875247124
10
-4.7006601717792407
20
-3.3571572875247035
10
-6.6428427124746232
20
-5.2993398282200843
10
-7.9999999999999876
20
-5.2993398282200843
10
-7.9999999999999849
20
-2.3571572875253688
10
-10.199999999999994
20
-2.3571572875253688
10
-10.199999999999994
20
-4.5571572875253752
10
-10.199999999999992
20
-10.199999999999854
10
-4.5571572875256594
20
-10.199999999999839
10
-2.3571572875259084
20
-10.199999999999845
10
2.3571572875263636
20
-10.199999999999845
10
4.5571572875259303
20
-10.199999999999845
10
10.199999999999985
20
-10.19999999999985
10
10.199999999999989
20
-4.5571572875253885
10
7.9999999999999787
20
-2.3571572875253777
10
7.9999999999999787
20
-5.2993398282200932
10
6.6428427124746108
20
-5.2993398282200932
10
4.7006601717792247
20
-3.3571572875247035
10
4.7006601717791829
20
3.3571572875246591
10
6.6428427124746321
20
5.2993398282201118
10
7.9999999999999822
20
5.2993398282200612
10
7.9999999999999822
20
2.3571572875253688
10
10.199999999999994
20
2.3571572875253688
10
10.199999999999994
20
4.5571572875253787
10
10.199999999999994
20
10.199999999999751
10
4.5571572875259285
20
10.199999999999751
10
2.3571572875263125
20
10.199999999999754
10
2.3571572875263258
20
8.0000000000001386
0
LINE
5
103
100
AcDbEntity
8
0
100
AcDbLine
10
5.2993398282201625
20
-6.6428427124746081
30
0
11
5.299339828220166
21
-8.0000000000001634
31
0
0
LINE
5
104
100
AcDbEntity
8
0
100
AcDbLine
10
7.9999999999999822
20
2.3571572875253688
30
0
11
10.199999999999994
21
4.5571572875253787
31
0
0
LINE
5
105
100
AcDbEntity
8
0
100
AcDbLine
10
10.199999999999989
20
-2.3571572875253777
30
0
11
7.9999999999999787
21
-2.3571572875253777
31
0
0
LINE
5
106
100
AcDbEntity
8
0
100
AcDbLine
10
-10.199999999999992
20
2.3571572875253821
30
0
11
-10.199999999999992
21
4.5571572875253921
31
0
0
LINE
5
107
100
AcDbEntity
8
0
100
AcDbLine
10
-2.3571572875259195
20
10.199999999999751
30
0
11
-2.3571572875259195
21
8.0000000000001616
31
0
0
LINE
5
108
100
AcDbEntity
8
0
100
AcDbLine
10
-7.9999999999999805
20
2.3571572875253777
30
0
11
-10.199999999999992
21
2.3571572875253821
31
0
0
LINE
5
109
100
AcDbEntity
8
0
100
AcDbLine
10
2.3571572875263636
20
-8.0000000000001528
30
0
11
4.5571572875259303
21
-10.199999999999845
31
0
0
LINE
5
110
100
AcDbEntity
8
0
100
AcDbLine
10
4.5571572875259285
20
10.199999999999751
30
0
11
2.3571572875263258
21
8.0000000000001386
31
0
0
LINE
5
111
100
AcDbEntity
8
0
100
AcDbLine
10
10.199999999999989
20
-4.5571572875253885
30
0
11
10.199999999999989
21
-2.3571572875253777
31
0
0
LINE
5
112
100
AcDbEntity
8
0
100
AcDbLine
10
-3.3571572875253786
20
-4.7006601717798135
30
0
11
3.3571572875253697
21
-4.7006601717798135
31
0
0
LINE
5
113
100
AcDbEntity
8
0
100
AcDbLine
10
5.299339828220166
20
-8.0000000000001634
30
0
11
2.3571572875263636
21
-8.0000000000001528
31
0
0
CIRCLE
5
114
100
AcDbEntity
8
0
100
AcDbCircle
10
0
20
0
30
0
40
2.5
210
0
220
-0
230
1
0
LWPOLYLINE
5
115
100
AcDbEntity
8
0
100
AcDbPolyline
90
3
70
1
43
0.0
10
-15
20
15
10
15
20
-15
10
-15
20
-15
0
LINE
5
116
100
AcDbEntity
8
0
100
AcDbLine
10
15
20
-15
30
0
11
15
21
15
31
0
0
LINE
5
117
100
AcDbEntity
8
0
100
AcDbLine
10
15
20
15
30
0
11
-15
21
15
31
0
0
LINE
5
118
100
AcDbEntity
8
0
100
AcDbLine
10
3.3571572875253697
20
-4.7006601717798135
30
0
11
5.2993398282201625
21
-6.6428427124746081
31
0
0
LINE
5
119
100
AcDbEntity
8
0
100
AcDbLine
10
15
20
15
30
0
11
-15
21
-15
31
0
0
LINE
5
120
100
AcDbEntity
8
0
100
AcDbLine
10
-7.9999999999999849
20
-2.3571572875253688
30
0
11
-10.199999999999994
21
-4.5571572875253752
31
0
0
LINE
5
121
100
AcDbEntity
8
0
100
AcDbLine
10
-5.2993398282201714
20
-6.6428427124746037
30
0
11
-3.3571572875253786
21
-4.7006601717798135
31
0
0
LINE
5
122
100
AcDbEntity
8
0
100
AcDbLine
10
-4.5571572875256594
20
-10.199999999999839
30
0
11
-2.3571572875259128
21
-8.0000000000000924
31
0
0
LINE
5
123
100
AcDbEntity
8
0
100
AcDbLine
10
-2.3571572875259128
20
-8.0000000000000924
30
0
11
-2.3571572875259084
21
-10.199999999999845
31
0
0
LINE
5
124
100
AcDbEntity
8
0
100
AcDbLine
10
-5.2993398282201714
20
-8.0000000000001048
30
0
11
-5.2993398282201714
21
-6.6428427124746037
31
0
0
LINE
5
125
100
AcDbEntity
8
0
100
AcDbLine
10
-2.3571572875259128
20
-8.0000000000000924
30
0
11
-5.2993398282201714
21
-8.0000000000001048
31
0
0
LINE
5
126
100
AcDbEntity
8
0
100
AcDbLine
10
-4.5571572875255111
20
10.199999999999761
30
0
11
-2.3571572875259195
21
10.199999999999751
31
0
0
LINE
5
127
100
AcDbEntity
8
0
100
AcDbLine
10
0
20
15
30
0
11
66
21
15
31
0
0
LINE
5
128
100
AcDbEntity
8
0
100
AcDbLine
10
66
20
15
30
0
11
66
21
10
31
0
0
LINE
5
129
100
AcDbEntity
8
0
100
AcDbLine
10
66
20
10
30
0
11
15
21
10
31
0
0
LINE
5
130
100
AcDbEntity
8
0
100
AcDbLine
10
0
20
15
30
0
11
-66
21
15
31
0
0
LINE
5
131
100
AcDbEntity
8
0
100
AcDbLine
10
-66
20
15
30
0
11
-66
21
10
31
0
0
LINE
5
132
100
AcDbEntity
8
0
100
AcDbLine
10
-66
20
10
30
0
11
-15
21
10
31
0
0
LWPOLYLINE
5
133
100
AcDbEntity
8
0
100
AcDbPolyline
90
4
70
1
43
0.0
10
66
20
15
10
76
20
15
10
76
20
10
10
66
20
10
0
LWPOLYLINE
5
134
100
AcDbEntity
8
0
100
AcDbPolyline
90
4
70
1
43
0.0
10
-66
20
15
10
-76
20
15
10
-76
20
10
10
-66
20
10
0
LINE
5
135
100
AcDbEntity
8
0
100
AcDbLine
10
2.2759572004815709e-13
20
-10.199999999999845
30
0
11
0
21
-15
31
0
0
ENDSEC
0
SECTION
2
OBJECTS
0
DICTIONARY
5
C
100
AcDbDictionary
3
ACAD_GROUP
350
D
3
ACAD_MLINESTYLE
350
17
0
DICTIONARY
5
D
100
AcDbDictionary
0
DICTIONARY
5
1A
330
C
100
AcDbDictionary
0
DICTIONARY
5
17
100
AcDbDictionary
0
ENDSEC
0
EOF
