0
SECTION
2
HEADER
9
$INSUNITS
70
4
9
$ACADVER
1
AC1014
9
$HANDSEED
5
FFFF
0
ENDSEC
0
SECTION
2
TABLES
0
TABLE
2
VPORT
5
8
100
AcDbSymbolTable
0
ENDTAB
0
TABLE
2
LTYPE
5
5
100
AcDbSymbolTable
0
LTYPE
5
14
100
AcDbSymbolTableRecord
100
AcDbLinetypeTableRecord
2
BYBLOCK
70
0
0
LTYPE
5
15
100
AcDbSymbolTableRecord
100
AcDbLinetypeTableRecord
2
BYLAYER
70
0
0
ENDTAB
0
TABLE
2
LAYER
5
2
100
AcDbSymbolTable
70
2
0
LAYER
5
50
100
AcDbSymbolTableRecord
100
AcDbLayerTableRecord
2
0
70
0
6
CONTINUOUS
0
ENDTAB
0
TABLE
2
STYLE
5
3
100
AcDbSymbolTable
70
1
0
STYLE
5
11
100
AcDbSymbolTableRecord
100
AcDbTextStyleTableRecord
2
STANDARD
70
0
0
ENDTAB
0
TABLE
2
VIEW
5
6
100
AcDbSymbolTable
70
0
0
ENDTAB
0
TABLE
2
UCS
5
7
100
AcDbSymbolTable
70
0
0
ENDTAB
0
TABLE
2
APPID
5
9
100
AcDbSymbolTable
70
2
0
APPID
5
12
100
AcDbSymbolTableRecord
100
AcDbRegAppTableRecord
2
ACAD
70
0
0
ENDTAB
0
TABLE
2
DIMSTYLE
5
A
100
AcDbSymbolTable
70
1
0
ENDTAB
0
TABLE
2
BLOCK_RECORD
5
1
100
AcDbSymbolTable
70
1
0
BLOCK_RECORD
5
1F
100
AcDbSymbolTableRecord
100
AcDbBlockTableRecord
2
*MODEL_SPACE
0
BLOCK_RECORD
5
1B
100
AcDbSymbolTableRecord
100
AcDbBlockTableRecord
2
*PAPER_SPACE
0
ENDTAB
0
ENDSEC
0
SECTION
2
BLOCKS
0
BLOCK
5
20
100
AcDbEntity
100
AcDbBlockBegin
2
*MODEL_SPACE
0
ENDBLK
5
21
100
AcDbEntity
100
AcDbBlockEnd
0
BLOCK
5
1C
100
AcDbEntity
100
AcDbBlockBegin
2
*PAPER_SPACE
0
ENDBLK
5
1D
100
AcDbEntity
100
AcDbBlockEnd
0
ENDSEC
0
SECTION
2
ENTITIES
0
LWPOLYLINE
5
100
100
AcDbEntity
8
0
100
AcDbPolyline
90
49
70
1
43
0.0
10
-34.798496231132027
20
-58.080000000000027
10
-34.803571875000024
20
-58.080000000000027
10
-34.910443750000013
20
-58.072356250000027
10
-35.016500000000015
20
-58.057109375000024
10
-35.121196875000024
20
-58.034331250000015
10
-35.224000000000018
20
-58.004146875000025
10
-35.324390625000014
20
-57.966703125000009
10
-35.421853125000013
20
-57.922193750000019
10
-35.515893750000018
20
-57.87084375000002
10
-35.606028125000016
20
-57.812915625000009
10
-35.691803125000014
20
-57.748706250000019
10
-35.772778125000016
20
-57.678540625000025
10
-35.848540625000012
20
-57.602778125000029
10
-35.918706250000014
20
-57.521803125000019
10
-35.982915625000011
20
-57.436028125000021
10
-36.040843750000015
20
-57.345893750000016
10
-36.092193750000014
20
-57.251853125000018
10
-36.136703125000011
20
-57.154390625000026
10
-36.174146875000012
20
-57.054000000000009
10
-36.204331250000024
20
-56.951196875000022
10
-36.227109375000019
20
-56.84650000000002
10
-36.242356250000014
20
-56.740443750000018
10
-36.250000000000014
20
-56.633571875000008
10
-36.250000000000014
20
-56.52642812500001
10
-36.242356250000014
20
-56.419556250000021
10
-36.227109375000019
20
-56.313500000000019
10
-36.204331250000024
20
-56.208803125000024
10
-36.174146875000012
20
-56.106000000000009
10
-36.136703125000011
20
-56.00560937500002
10
-36.092193750000014
20
-55.908146875000028
10
-36.040843750000015
20
-55.814106250000009
10
-35.982915625000011
20
-55.723971875000018
10
-35.918706250000014
20
-55.63819687500002
10
-35.848540625000012
20
-55.557221875000025
10
-35.772778125000016
20
-55.481459375000021
10
-35.691803125000014
20
-55.411293750000027
10
-35.606028125000016
20
-55.347084375000009
10
-35.515893750000018
20
-55.289156250000026
10
-35.421853125000013
20
-55.23780625000002
10
-35.324390625000014
20
-55.193296875000009
10
-35.224000000000018
20
-55.155853125000021
10
-35.121196875000024
20
-55.125668750000031
10
-35.016500000000015
20
-55.102890625000029
10
-34.910443750000013
20
-55.087643750000019
10
-34.803571875000024
20
-55.08000000000002
10
-34.696428125000011
20
-55.08000000000002
10
-34.589556250000015
20
-55.087643750000019
10
-34.483500000000021
20
-55.102890625000029
10
-34.446423312072632
20
-55.110957125859741
42
-1.0858876969609241
0
LWPOLYLINE
5
101
100
AcDbEntity
8
0
100
AcDbPolyline
90
88
70
1
43
0.0
10
-86.346000000000032
20
-91.024146875000014
10
-86.448803125000012
20
-91.054331250000018
10
-86.553500000000014
20
-91.07710937500002
10
-86.659556250000037
20
-91.092356250000023
10
-86.766428125000033
20
-91.100000000000009
10
-86.873571875000053
20
-91.100000000000009
10
-86.980443750000035
20
-91.092356250000023
10
-87.086500000000029
20
-91.07710937500002
10
-87.191196875000031
20
-91.054331250000018
10
-87.294000000000011
20
-91.024146875000014
10
-87.394390625000028
20
-90.98670312500002
10
-87.491853125000034
20
-90.942193750000015
10
-87.585893750000011
20
-90.890843750000016
10
-87.67602812500003
20
-90.832915625000012
10
-87.761803125000029
20
-90.768706250000008
10
-87.842778125000052
20
-90.698540625000007
10
-87.91854062500002
20
-90.622778125000011
10
-87.988706250000035
20
-90.541803125000015
10
-88.052915625000026
20
-90.456028125000017
10
-88.110843750000015
20
-90.365893750000026
10
-88.162193750000029
20
-90.271853125000021
10
-88.206703125000018
20
-90.174390625000015
10
-88.244146875000027
20
-90.074000000000026
10
-88.274331250000017
20
-89.971196875000018
10
-88.297109375000034
20
-89.866500000000002
10
-88.31235625000005
20
-89.760443750000007
10
-88.32000000000005
20
-89.653571875000011
10
-88.32000000000005
20
-89.546428125000006
10
-88.31235625000005
20
-89.43955625000001
10
-88.297109375000034
20
-89.333500000000015
10
-88.274331250000017
20
-89.228803125000013
10
-88.244146875000027
20
-89.126000000000005
10
-88.206703125000018
20
-89.025609375000016
10
-88.162193750000029
20
-88.92814687500001
10
-88.110843750000015
20
-88.834106250000019
10
-88.052915625000026
20
-88.743971875000014
10
-87.988706250000035
20
-88.658196875000016
10
-87.91854062500002
20
-88.577221875000021
10
-87.842778125000052
20
-88.501459375000024
10
-87.761803125000029
20
-88.431293750000023
10
-87.67602812500003
20
-88.367084375000005
10
-87.585893750000011
20
-88.309156250000015
10
-87.491853125000034
20
-88.257806250000016
10
-87.394390625000028
20
-88.213296874999997
10
-87.294000000000011
20
-88.175853125000017
10
-87.191196875000031
20
-88.145668749999999
10
-87.086500000000029
20
-88.122890625000011
10
-86.980443750000035
20
-88.107643750000022
10
-86.873571875000053
20
-88.100000000000023
10
-86.766428125000033
20
-88.100000000000023
10
-86.659556250000037
20
-88.107643750000022
10
-86.553500000000014
20
-88.122890625000011
10
-86.448803125000012
20
-88.145668749999999
10
-86.346000000000032
20
-88.175853125000017
10
-86.245609375000015
20
-88.213296874999997
10
-86.148146875000037
20
-88.257806250000016
10
-86.054106250000032
20
-88.309156250000015
10
-85.963971875000027
20
-88.367084375000005
10
-85.878196875000029
20
-88.431293750000023
10
-85.797221875000034
20
-88.501459375000024
10
-85.721459375000052
20
-88.577221875000021
10
-85.65129375000005
20
-88.658196875000016
10
-85.587084375000032
20
-88.743971875000014
10
-85.529156250000028
20
-88.834106250000019
10
-85.477806250000029
20
-88.92814687500001
10
-85.433296875000053
20
-89.025609375000016
10
-85.395853125000031
20
-89.126000000000005
10
-85.365668750000026
20
-89.228803125000013
10
-85.342890625000052
20
-89.333500000000015
10
-85.32764375000005
20
-89.43955625000001
10
-85.32000000000005
20
-89.546428125000006
10
-85.32000000000005
20
-89.653571875000011
10
-85.32764375000005
20
-89.760443750000007
10
-85.342890625000052
20
-89.866500000000002
10
-85.365668750000026
20
-89.971196875000018
10
-85.395853125000031
20
-90.074000000000026
10
-85.433296875000053
20
-90.174390625000015
10
-85.477806250000029
20
-90.271853125000021
10
-85.529156250000028
20
-90.365893750000026
10
-85.587084375000032
20
-90.456028125000017
10
-85.65129375000005
20
-90.541803125000015
10
-85.721459375000052
20
-90.622778125000011
10
-85.797221875000034
20
-90.698540625000007
10
-85.878196875000029
20
-90.768706250000008
10
-85.963971875000027
20
-90.832915625000012
10
-86.054106250000032
20
-90.890843750000016
10
-86.148146875000037
20
-90.942193750000015
10
-86.245609375000015
20
-90.98670312500002
0
LWPOLYLINE
5
102
100
AcDbEntity
8
0
100
AcDbPolyline
90
88
70
1
43
0.0
10
-85.921196875000021
20
-39.885668750000008
10
-85.816500000000033
20
-39.862890624999991
10
-85.710443750000024
20
-39.847643750000017
10
-85.603571875000029
20
-39.840000000000018
10
-85.496428125000037
20
-39.840000000000018
10
-85.389556249999998
20
-39.847643750000017
10
-85.283500000000032
20
-39.862890624999991
10
-85.178803125000002
20
-39.885668750000008
10
-85.076000000000036
20
-39.915853125000012
10
-84.975609375000005
20
-39.953296874999992
10
-84.878146875000027
20
-39.997806250000011
10
-84.784106250000022
20
-40.04915625000001
10
-84.693971875000003
20
-40.107084375000014
10
-84.608196875000033
20
-40.17129374999999
10
-84.527221875000038
20
-40.241459374999991
10
-84.451459375000013
20
-40.317221875000016
10
-84.381293750000026
20
-40.398196875000011
10
-84.317084375000036
20
-40.483971875000009
10
-84.259156250000018
20
-40.574106250000014
10
-84.207806250000033
20
-40.668146874999991
10
-84.163296875000029
20
-40.765609375000011
10
-84.12585312500002
20
-40.866000000000014
10
-84.09566875000003
20
-40.968803125000008
10
-84.072890625000014
20
-41.07350000000001
10
-84.057643750000011
20
-41.17955624999999
10
-84.050000000000011
20
-41.286428125000015
10
-84.050000000000011
20
-41.393571874999992
10
-84.057643750000011
20
-41.500443750000017
10
-84.072890625000014
20
-41.606500000000011
10
-84.09566875000003
20
-41.711196875000013
10
-84.12585312500002
20
-41.814000000000007
10
-84.163296875000029
20
-41.91439062500001
10
-84.207806250000033
20
-42.011853125000016
10
-84.259156250000018
20
-42.105893749999993
10
-84.317084375000036
20
-42.196028125000012
10
-84.381293750000026
20
-42.28180312500001
10
-84.451459375000013
20
-42.362778124999991
10
-84.527221875000038
20
-42.438540625000016
10
-84.608196875000033
20
-42.508706250000017
10
-84.693971875000003
20
-42.572915625000007
10
-84.784106250000022
20
-42.630843750000011
10
-84.878146875000027
20
-42.68219375000001
10
-84.975609375000005
20
-42.726703125000014
10
-85.076000000000036
20
-42.764146875000009
10
-85.178803125000002
20
-42.794331250000013
10
-85.283500000000032
20
-42.817109375000015
10
-85.389556249999998
20
-42.832356249999989
10
-85.496428125000037
20
-42.840000000000018
10
-85.603571875000029
20
-42.840000000000018
10
-85.710443750000024
20
-42.832356249999989
10
-85.816500000000033
20
-42.817109375000015
10
-85.921196875000021
20
-42.794331250000013
10
-86.024000000000029
20
-42.764146875000009
10
-86.124390625000018
20
-42.726703125000014
10
-86.221853125000052
20
-42.68219375000001
10
-86.315893750000015
20
-42.630843750000011
10
-86.406028125000034
20
-42.572915625000007
10
-86.491803125000004
20
-42.508706250000017
10
-86.572778125000013
20
-42.438540625000016
10
-86.648540625000052
20
-42.362778124999991
10
-86.718706249999997
20
-42.28180312500001
10
-86.782915625000001
20
-42.196028125000012
10
-86.840843750000005
20
-42.105893749999993
10
-86.892193750000004
20
-42.011853125000016
10
-86.936703125000037
20
-41.91439062500001
10
-86.974146875000002
20
-41.814000000000007
10
-87.004331250000035
20
-41.711196875000013
10
-87.027109375000038
20
-41.606500000000011
10
-87.042356250000026
20
-41.500443750000017
10
-87.050000000000011
20
-41.393571874999992
10
-87.050000000000011
20
-41.286428125000015
10
-87.042356250000026
20
-41.17955624999999
10
-87.027109375000038
20
-41.07350000000001
10
-87.004331250000035
20
-40.968803125000008
10
-86.974146875000002
20
-40.866000000000014
10
-86.936703125000037
20
-40.765609375000011
10
-86.892193750000004
20
-40.668146874999991
10
-86.840843750000005
20
-40.574106250000014
10
-86.782915625000001
20
-40.483971875000009
10
-86.718706249999997
20
-40.398196875000011
10
-86.648540625000052
20
-40.317221875000016
10
-86.572778125000013
20
-40.241459374999991
10
-86.491803125000004
20
-40.17129374999999
10
-86.406028125000034
20
-40.107084375000014
10
-86.315893750000015
20
-40.04915625000001
10
-86.221853125000052
20
-39.997806250000011
10
-86.124390625000018
20
-39.953296874999992
10
-86.024000000000029
20
-39.915853125000012
0
LWPOLYLINE
5
103
100
AcDbEntity
8
0
100
AcDbPolyline
90
4
70
1
43
0.0
10
-32.000000000000021
20
-100.50000000000003
10
-32.000000000000014
20
-30.500000000000025
10
-114.50000000000003
20
-30.500000000000007
10
-114.50000000000003
20
-100.5
0
LWPOLYLINE
5
104
100
AcDbEntity
8
0
100
AcDbPolyline
90
88
70
1
43
0.0
10
-14.908540625000006
20
-27.122775000000008
10
-14.978703125000006
20
-27.041803125000037
10
-15.042915625000008
20
-26.956028125000007
10
-15.100840625000005
20
-26.865890625000013
10
-15.152190625000006
20
-26.771853125000007
10
-15.196700000000007
20
-26.674390625000033
10
-15.234143750000008
20
-26.574000000000026
10
-15.264328125000006
20
-26.471196875
10
-15.287106250000006
20
-26.36650000000003
10
-15.30235312500001
20
-26.260443750000029
10
-15.309996875000007
20
-26.153571875000026
10
-15.309996875000007
20
-26.046428125000016
10
-15.30235312500001
20
-25.939556250000031
10
-15.287106250000006
20
-25.833500000000029
10
-15.264328125000006
20
-25.728803125000024
10
-15.234143750000008
20
-25.626000000000015
10
-15.196700000000007
20
-25.525609375000027
10
-15.152190625000006
20
-25.428146875000035
10
-15.100840625000005
20
-25.334109375000029
10
-15.042915625000008
20
-25.243971875000035
10
-14.978703125000006
20
-25.158196875000041
10
-14.908540625000006
20
-25.077225000000034
10
-14.832775000000005
20
-25.001459375000028
10
-14.751803125000007
20
-24.931296875000033
10
-14.666028125000008
20
-24.867084375000044
10
-14.57589062500001
20
-24.809159375000025
10
-14.481853125000008
20
-24.757809375000033
10
-14.384390625000007
20
-24.713300000000036
10
-14.284000000000006
20
-24.675856250000034
10
-14.181196875000007
20
-24.645671875000037
10
-14.07650000000001
20
-24.622893750000028
10
-13.970443750000008
20
-24.607646875000029
10
-13.863571875000005
20
-24.600003125000036
10
-13.756428125000005
20
-24.600003125000036
10
-13.649556250000005
20
-24.607646875000029
10
-13.543500000000009
20
-24.622893750000028
10
-13.438803125000007
20
-24.645671875000037
10
-13.336000000000007
20
-24.675856250000034
10
-13.235609375000006
20
-24.713300000000036
10
-13.138146875000006
20
-24.757809375000033
10
-13.044109375000009
20
-24.809159375000025
10
-12.953971875000006
20
-24.867084375000044
10
-12.868196875000006
20
-24.931296875000033
10
-12.787225000000008
20
-25.001459375000028
10
-12.711459375000008
20
-25.077225000000034
10
-12.641296875000007
20
-25.158196875000041
10
-12.577084375000005
20
-25.243971875000035
10
-12.519159375000008
20
-25.334109375000029
10
-12.467809375000007
20
-25.428146875000035
10
-12.423300000000006
20
-25.525609375000027
10
-12.385856250000005
20
-25.626000000000015
10
-12.355671875000008
20
-25.728803125000024
10
-12.332893750000007
20
-25.833500000000029
10
-12.317646875000008
20
-25.939556250000031
10
-12.310003125000007
20
-26.046428125000016
10
-12.310003125000007
20
-26.153571875000026
10
-12.317646875000008
20
-26.260443750000029
10
-12.332893750000007
20
-26.36650000000003
10
-12.355671875000008
20
-26.471196875
10
-12.385856250000005
20
-26.574000000000026
10
-12.423300000000006
20
-26.674390625000033
10
-12.467809375000007
20
-26.771853125000007
10
-12.519159375000008
20
-26.865890625000013
10
-12.577084375000005
20
-26.956028125000007
10
-12.641296875000007
20
-27.041803125000037
10
-12.711459375000008
20
-27.122775000000008
10
-12.787225000000008
20
-27.198540625000014
10
-12.868196875000006
20
-27.268703125000027
10
-12.953971875000006
20
-27.332915625000034
10
-13.044109375000009
20
-27.390840625000035
10
-13.138146875000006
20
-27.442190625000027
10
-13.235609375000006
20
-27.486700000000024
10
-13.336000000000007
20
-27.524143750000025
10
-13.438803125000007
20
-27.554328125000023
10
-13.543500000000009
20
-27.577106250000032
10
-13.649556250000005
20
-27.592353125000031
10
-13.756428125000005
20
-27.599996875000041
10
-13.863571875000005
20
-27.599996875000041
10
-13.970443750000008
20
-27.592353125000031
10
-14.07650000000001
20
-27.577106250000032
10
-14.181196875000007
20
-27.554328125000023
10
-14.284000000000006
20
-27.524143750000025
10
-14.384390625000007
20
-27.486700000000024
10
-14.481853125000008
20
-27.442190625000027
10
-14.57589062500001
20
-27.390840625000035
10
-14.666028125000008
20
-27.332915625000034
10
-14.751803125000007
20
-27.268703125000027
10
-14.832775000000005
20
-27.198540625000014
0
LWPOLYLINE
5
105
100
AcDbEntity
8
0
100
AcDbPolyline
90
88
70
1
43
0.0
10
-87.29854062500003
20
-112.21277500000002
10
-87.368703125000053
20
-112.13180312500002
10
-87.432915625000049
20
-112.04602812500002
10
-87.490840625000033
20
-111.95589062500002
10
-87.542190625000018
20
-111.86185312500002
10
-87.586700000000064
20
-111.76439062500002
10
-87.62414375000003
20
-111.66400000000003
10
-87.654328125000035
20
-111.56119687500002
10
-87.677106250000065
20
-111.45650000000002
10
-87.692353125000025
20
-111.35044375000001
10
-87.699996875000053
20
-111.24357187500003
10
-87.699996875000053
20
-111.13642812500002
10
-87.692353125000025
20
-111.02955625000001
10
-87.677106250000065
20
-110.92350000000002
10
-87.654328125000035
20
-110.81880312500003
10
-87.62414375000003
20
-110.71600000000002
10
-87.586700000000064
20
-110.61560937500003
10
-87.542190625000018
20
-110.51814687500001
10
-87.490840625000033
20
-110.42410937500001
10
-87.432915625000049
20
-110.33397187500002
10
-87.368703125000053
20
-110.24819687500002
10
-87.29854062500003
20
-110.16722500000002
10
-87.222775000000041
20
-110.09145937500001
10
-87.141803125000052
20
-110.02129687500002
10
-87.05602812500004
20
-109.95708437500002
10
-86.965890625000029
20
-109.89915937500002
10
-86.87185312500003
20
-109.84780937500003
10
-86.774390625000066
20
-109.80330000000002
10
-86.674000000000021
20
-109.76585625000001
10
-86.571196875000027
20
-109.73567187500002
10
-86.466500000000053
20
-109.71289375000003
10
-86.360443750000044
20
-109.69764687500002
10
-86.253571875000034
20
-109.69000312500002
10
-86.146428125000028
20
-109.69000312500002
10
-86.039556250000047
20
-109.69764687500002
10
-85.933500000000038
20
-109.71289375000003
10
-85.828803125000064
20
-109.73567187500002
10
-85.726000000000028
20
-109.76585625000001
10
-85.625609375000067
20
-109.80330000000002
10
-85.528146875000033
20
-109.84780937500003
10
-85.43410937500002
20
-109.89915937500002
10
-85.343971875000051
20
-109.95708437500002
10
-85.258196875000053
20
-110.02129687500002
10
-85.17722500000005
20
-110.09145937500001
10
-85.101459375000019
20
-110.16722500000002
10
-85.031296875000066
20
-110.24819687500002
10
-84.967084375000042
20
-110.33397187500002
10
-84.90915937500003
20
-110.42410937500001
10
-84.857809375000031
20
-110.51814687500001
10
-84.813300000000027
20
-110.61560937500003
10
-84.775856250000032
20
-110.71600000000002
10
-84.745671875000028
20
-110.81880312500003
10
-84.722893750000026
20
-110.92350000000002
10
-84.707646875000052
20
-111.02955625000001
10
-84.700003125000052
20
-111.13642812500002
10
-84.700003125000052
20
-111.24357187500003
10
-84.707646875000052
20
-111.35044375000001
10
-84.722893750000026
20
-111.45650000000002
10
-84.745671875000028
20
-111.56119687500002
10
-84.775856250000032
20
-111.66400000000003
10
-84.813300000000027
20
-111.76439062500002
10
-84.857809375000031
20
-111.86185312500002
10
-84.90915937500003
20
-111.95589062500002
10
-84.967084375000042
20
-112.04602812500002
10
-85.031296875000066
20
-112.13180312500002
10
-85.101459375000019
20
-112.21277500000002
10
-85.17722500000005
20
-112.28854062500002
10
-85.258196875000053
20
-112.35870312500003
10
-85.343971875000051
20
-112.42291562500002
10
-85.43410937500002
20
-112.48084062500001
10
-85.528146875000033
20
-112.53219062500003
10
-85.625609375000067
20
-112.57670000000003
10
-85.726000000000028
20
-112.61414375000003
10
-85.828803125000064
20
-112.64432812500003
10
-85.933500000000038
20
-112.66710625000002
10
-86.039556250000047
20
-112.68235312500002
10
-86.146428125000028
20
-112.68999687500002
10
-86.253571875000034
20
-112.68999687500002
10
-86.360443750000044
20
-112.68235312500002
10
-86.466500000000053
20
-112.66710625000002
10
-86.571196875000027
20
-112.64432812500003
10
-86.674000000000021
20
-112.61414375000003
10
-86.774390625000066
20
-112.57670000000003
10
-86.87185312500003
20
-112.53219062500003
10
-86.965890625000029
20
-112.48084062500001
10
-87.05602812500004
20
-112.42291562500002
10
-87.141803125000052
20
-112.35870312500003
10
-87.222775000000041
20
-112.28854062500002
0
LWPOLYLINE
5
106
100
AcDbEntity
8
0
100
AcDbPolyline
90
88
70
1
43
0.0
10
-87.542190625000018
20
-25.428146875000017
10
-87.490840625000018
20
-25.334109375000011
10
-87.432915625000021
20
-25.243971875000017
10
-87.368703125000025
20
-25.158196875000023
10
-87.298540625000015
20
-25.077225000000016
10
-87.222775000000013
20
-25.00145937500001
10
-87.141803125000038
20
-24.931296875000015
10
-87.056028125000012
20
-24.867084375000026
10
-86.965890625000014
20
-24.809159375000007
10
-86.87185312500003
20
-24.757809375000015
10
-86.774390625000024
20
-24.713300000000018
10
-86.674000000000007
20
-24.675856250000017
10
-86.571196874999998
20
-24.645671875000019
10
-86.466500000000053
20
-24.62289375000001
10
-86.360443750000002
20
-24.607646875000011
10
-86.253571875000006
20
-24.600003125000018
10
-86.146428125000014
20
-24.600003125000018
10
-86.039556250000004
20
-24.607646875000011
10
-85.933500000000038
20
-24.62289375000001
10
-85.828803125000022
20
-24.645671875000019
10
-85.726000000000013
20
-24.675856250000017
10
-85.625609375000025
20
-24.713300000000018
10
-85.528146875000019
20
-24.757809375000015
10
-85.43410937500002
20
-24.809159375000007
10
-85.343971875000037
20
-24.867084375000026
10
-85.258196875000039
20
-24.931296875000015
10
-85.177225000000021
20
-25.00145937500001
10
-85.101459375000019
20
-25.077225000000016
10
-85.031296875000038
20
-25.158196875000023
10
-84.967084375000013
20
-25.243971875000017
10
-84.90915937500003
20
-25.334109375000011
10
-84.857809375000016
20
-25.428146875000017
10
-84.813299999999998
20
-25.525609375000009
10
-84.775856250000018
20
-25.625999999999998
10
-84.745671874999999
20
-25.728803125000006
10
-84.722893750000011
20
-25.833500000000011
10
-84.707646875000052
20
-25.939556250000013
10
-84.700003125000038
20
-26.046428124999998
10
-84.700003125000038
20
-26.153571875000008
10
-84.707646875000052
20
-26.260443750000011
10
-84.722893750000011
20
-26.366500000000013
10
-84.745671874999999
20
-26.471196874999983
10
-84.775856250000018
20
-26.574000000000009
10
-84.813299999999998
20
-26.674390625000015
10
-84.857809375000016
20
-26.771853124999989
10
-84.90915937500003
20
-26.865890624999995
10
-84.967084375000013
20
-26.956028124999989
10
-85.031296875000038
20
-27.041803125000019
10
-85.101459375000019
20
-27.12277499999999
10
-85.177225000000021
20
-27.198540624999996
10
-85.258196875000039
20
-27.268703125000009
10
-85.343971875000037
20
-27.332915625000016
10
-85.43410937500002
20
-27.390840625000017
10
-85.528146875000019
20
-27.442190625000009
10
-85.625609375000025
20
-27.486700000000006
10
-85.726000000000013
20
-27.524143750000007
10
-85.828803125000022
20
-27.554328125000005
10
-85.933500000000038
20
-27.577106250000014
10
-86.039556250000004
20
-27.592353125000013
10
-86.146428125000014
20
-27.599996875000024
10
-86.253571875000006
20
-27.599996875000024
10
-86.360443750000002
20
-27.592353125000013
10
-86.466500000000053
20
-27.577106250000014
10
-86.571196874999998
20
-27.554328125000005
10
-86.674000000000007
20
-27.524143750000007
10
-86.774390625000024
20
-27.486700000000006
10
-86.87185312500003
20
-27.442190625000009
10
-86.965890625000014
20
-27.390840625000017
10
-87.056028125000012
20
-27.332915625000016
10
-87.141803125000038
20
-27.268703125000009
10
-87.222775000000013
20
-27.198540624999996
10
-87.298540625000015
20
-27.12277499999999
10
-87.368703125000025
20
-27.041803125000019
10
-87.432915625000021
20
-26.956028124999989
10
-87.490840625000018
20
-26.865890624999995
10
-87.542190625000018
20
-26.771853124999989
10
-87.586700000000022
20
-26.674390625000015
10
-87.62414375000003
20
-26.574000000000009
10
-87.654328125000021
20
-26.471196874999983
10
-87.677106250000037
20
-26.366500000000013
10
-87.692353125000011
20
-26.260443750000011
10
-87.699996875000039
20
-26.153571875000008
10
-87.699996875000039
20
-26.046428124999998
10
-87.692353125000011
20
-25.939556250000013
10
-87.677106250000037
20
-25.833500000000011
10
-87.654328125000021
20
-25.728803125000006
10
-87.62414375000003
20
-25.625999999999998
10
-87.586700000000022
20
-25.525609375000009
0
LWPOLYLINE
5
107
100
AcDbEntity
8
0
100
AcDbPolyline
90
88
70
1
43
0.0
10
-14.908540625000022
20
-92.387225000000029
10
-14.832775000000019
20
-92.311459375000027
10
-14.751803125000023
20
-92.241296875000032
10
-14.666028125000024
20
-92.177084375000049
10
-14.575890625000024
20
-92.119159375000024
10
-14.481853125000024
20
-92.067809375000024
10
-14.384390625000023
20
-92.023300000000035
10
-14.28400000000002
20
-91.98585625000004
10
-14.181196875000023
20
-91.955671875000036
10
-14.076500000000024
20
-91.932893750000034
10
-13.970443750000022
20
-91.917646875000031
10
-13.863571875000019
20
-91.910003125000031
10
-13.756428125000021
20
-91.910003125000031
10
-13.649556250000021
20
-91.917646875000031
10
-13.543500000000023
20
-91.932893750000034
10
-13.438803125000023
20
-91.955671875000036
10
-13.336000000000023
20
-91.98585625000004
10
-13.235609375000021
20
-92.023300000000035
10
-13.138146875000022
20
-92.067809375000024
10
-13.044109375000023
20
-92.119159375000024
10
-12.953971875000022
20
-92.177084375000049
10
-12.868196875000022
20
-92.241296875000032
10
-12.787225000000024
20
-92.311459375000027
10
-12.711459375000022
20
-92.387225000000029
10
-12.641296875000023
20
-92.468196875000046
10
-12.57708437500002
20
-92.55397187500003
10
-12.519159375000024
20
-92.644109375000028
10
-12.467809375000023
20
-92.738146875000041
10
-12.423300000000022
20
-92.835609375000018
10
-12.385856250000021
20
-92.936000000000035
10
-12.355671875000024
20
-93.038803125000044
10
-12.332893750000022
20
-93.143500000000031
10
-12.317646875000023
20
-93.249556250000026
10
-12.310003125000023
20
-93.356428125000036
10
-12.310003125000023
20
-93.463571875000042
10
-12.317646875000023
20
-93.570443750000024
10
-12.332893750000022
20
-93.676500000000033
10
-12.355671875000024
20
-93.781196875000035
10
-12.385856250000021
20
-93.884000000000043
10
-12.423300000000022
20
-93.984390625000032
10
-12.467809375000023
20
-94.081853125000023
10
-12.519159375000024
20
-94.175890625000022
10
-12.57708437500002
20
-94.266028125000048
10
-12.641296875000023
20
-94.351803125000032
10
-12.711459375000022
20
-94.432775000000049
10
-12.787225000000024
20
-94.508540625000023
10
-12.868196875000022
20
-94.578703125000033
10
-12.953971875000022
20
-94.642915625000029
10
-13.044109375000023
20
-94.700840625000041
10
-13.138146875000022
20
-94.752190625000026
10
-13.235609375000021
20
-94.796700000000044
10
-13.336000000000023
20
-94.834143750000024
10
-13.438803125000023
20
-94.864328125000043
10
-13.543500000000023
20
-94.887106250000031
10
-13.649556250000021
20
-94.902353125000033
10
-13.756428125000021
20
-94.909996875000019
10
-13.863571875000019
20
-94.909996875000019
10
-13.970443750000022
20
-94.902353125000033
10
-14.076500000000024
20
-94.887106250000031
10
-14.181196875000023
20
-94.864328125000043
10
-14.28400000000002
20
-94.834143750000024
10
-14.384390625000023
20
-94.796700000000044
10
-14.481853125000024
20
-94.752190625000026
10
-14.575890625000024
20
-94.700840625000041
10
-14.666028125000024
20
-94.642915625000029
10
-14.751803125000023
20
-94.578703125000033
10
-14.832775000000019
20
-94.508540625000023
10
-14.908540625000022
20
-94.432775000000049
10
-14.97870312500002
20
-94.351803125000032
10
-15.042915625000024
20
-94.266028125000048
10
-15.100840625000021
20
-94.175890625000022
10
-15.152190625000021
20
-94.081853125000023
10
-15.196700000000023
20
-93.984390625000032
10
-15.234143750000024
20
-93.884000000000043
10
-15.264328125000022
20
-93.781196875000035
10
-15.287106250000022
20
-93.676500000000033
10
-15.302353125000025
20
-93.570443750000024
10
-15.309996875000023
20
-93.463571875000042
10
-15.309996875000023
20
-93.356428125000036
10
-15.302353125000025
20
-93.249556250000026
10
-15.287106250000022
20
-93.143500000000031
10
-15.264328125000022
20
-93.038803125000044
10
-15.234143750000024
20
-92.936000000000035
10
-15.196700000000023
20
-92.835609375000018
10
-15.152190625000021
20
-92.738146875000041
10
-15.100840625000021
20
-92.644109375000028
10
-15.042915625000024
20
-92.55397187500003
10
-14.97870312500002
20
-92.468196875000046
0
LWPOLYLINE
5
108
100
AcDbEntity
8
0
100
AcDbPolyline
90
8
70
1
43
0.0
10
-32.000000000000021
20
-100.50000000000003
10
-89.680000000000035
20
-100.5
10
-89.680000000000035
20
-115.00000000000001
10
-10.000000000000027
20
-115.00000000000003
10
-10.000000000000007
20
-23.580000000000023
10
-89.680000000000021
20
-23.580000000000005
10
-89.680000000000021
20
-30.500000000000007
10
-32.000000000000014
20
-30.500000000000025
0
LWPOLYLINE
5
109
100
AcDbEntity
8
0
100
AcDbPolyline
90
4
70
1
43
0.0
10
4.603177710245614
20
-8.553543105731638
10
-63.39682228975321
20
-8.5535431057312827
10
-63.396822289753281
20
-15.553543105731283
10
4.6031777102455429
20
-15.55354310573164
0
CIRCLE
5
110
100
AcDbEntity
8
0
100
AcDbCircle
10
-29.396822289753821
20
-12.05354310573146
30
0
40
1.4999999999999987
210
0
220
-0
230
1
0
CIRCLE
5
111
100
AcDbEntity
8
0
100
AcDbCircle
10
-0.39682228975433276
20
-12.053543105731613
30
0
40
1.4999999999999987
210
0
220
-0
230
1
0
CIRCLE
5
112
100
AcDbEntity
8
0
100
AcDbCircle
10
-58.396822289753331
20
-12.053543105731311
30
0
40
1.4999999999999987
210
0
220
-0
230
1
0
CIRCLE
5
113
100
AcDbEntity
8
0
100
AcDbCircle
10
-29.396822289753164
20
46.946456894268529
30
0
40
1.4999999999999987
210
0
220
-0
230
1
0
LWPOLYLINE
5
114
100
AcDbEntity
8
0
100
AcDbPolyline
90
4
70
1
43
0.0
10
-63.396822289752627
20
43.4464568942687
10
4.6031777102462001
20
43.446456894268344
10
4.6031777102462605
20
50.446456894268351
10
-63.396822289752556
20
50.446456894268707
0
CIRCLE
5
115
100
AcDbEntity
8
0
100
AcDbCircle
10
-58.39682228975267
20
46.946456894268671
30
0
40
1.4999999999999987
210
0
220
-0
230
1
0
CIRCLE
5
116
100
AcDbEntity
8
0
100
AcDbCircle
10
-29.396822289753164
20
46.946456894268529
30
0
40
1.4999999999999987
210
0
220
-0
230
1
0
CIRCLE
5
117
100
AcDbEntity
8
0
100
AcDbCircle
10
-0.39682228975365774
20
46.946456894268366
30
0
40
1.4999999999999987
210
0
220
-0
230
1
0
CIRCLE
5
118
100
AcDbEntity
8
0
100
AcDbCircle
10
-86.187743851954735
20
-111.23462339568745
30
0
40
1.4999999999999996
210
0
220
0
230
1
0
CIRCLE
5
119
100
AcDbEntity
8
0
100
AcDbCircle
10
-86.199998073279858
20
-26.099999416619539
30
0
40
1.5000000000000004
210
0
220
0
230
1
0
CIRCLE
5
120
100
AcDbEntity
8
0
100
AcDbCircle
10
-13.799999691545963
20
-26.099999416619539
30
0
40
1.5000000000000016
210
0
220
0
230
1
0
CIRCLE
5
121
100
AcDbEntity
8
0
100
AcDbCircle
10
-13.830050722163893
20
-93.398863172506566
30
0
40
1.5000000000000033
210
0
220
0
230
1
0
ENDSEC
0
SECTION
2
OBJECTS
0
DICTIONARY
5
C
100
AcDbDictionary
3
ACAD_GROUP
350
D
3
ACAD_MLINESTYLE
350
17
0
DICTIONARY
5
D
100
AcDbDictionary
0
DICTIONARY
5
1A
330
C
100
AcDbDictionary
0
DICTIONARY
5
17
100
AcDbDictionary
0
ENDSEC
0
EOF
