0
SECTION
2
HEADER
9
$INSUNITS
70
4
9
$ACADVER
1
AC1014
9
$HANDSEED
5
FFFF
0
ENDSEC
0
SECTION
2
TABLES
0
TABLE
2
VPORT
5
8
100
AcDbSymbolTable
0
ENDTAB
0
TABLE
2
LTYPE
5
5
100
AcDbSymbolTable
0
LTYPE
5
14
100
AcDbSymbolTableRecord
100
AcDbLinetypeTableRecord
2
BYBLOCK
70
0
0
LTYPE
5
15
100
AcDbSymbolTableRecord
100
AcDbLinetypeTableRecord
2
BYLAYER
70
0
0
ENDTAB
0
TABLE
2
LAYER
5
2
100
AcDbSymbolTable
70
2
0
LAYER
5
50
100
AcDbSymbolTableRecord
100
AcDbLayerTableRecord
2
0
70
0
6
CONTINUOUS
0
ENDTAB
0
TABLE
2
STYLE
5
3
100
AcDbSymbolTable
70
1
0
STYLE
5
11
100
AcDbSymbolTableRecord
100
AcDbTextStyleTableRecord
2
STANDARD
70
0
0
ENDTAB
0
TABLE
2
VIEW
5
6
100
AcDbSymbolTable
70
0
0
ENDTAB
0
TABLE
2
UCS
5
7
100
AcDbSymbolTable
70
0
0
ENDTAB
0
TABLE
2
APPID
5
9
100
AcDbSymbolTable
70
2
0
APPID
5
12
100
AcDbSymbolTableRecord
100
AcDbRegAppTableRecord
2
ACAD
70
0
0
ENDTAB
0
TABLE
2
DIMSTYLE
5
A
100
AcDbSymbolTable
70
1
0
ENDTAB
0
TABLE
2
BLOCK_RECORD
5
1
100
AcDbSymbolTable
70
1
0
BLOCK_RECORD
5
1F
100
AcDbSymbolTableRecord
100
AcDbBlockTableRecord
2
*MODEL_SPACE
0
BLOCK_RECORD
5
1B
100
AcDbSymbolTableRecord
100
AcDbBlockTableRecord
2
*PAPER_SPACE
0
ENDTAB
0
ENDSEC
0
SECTION
2
BLOCKS
0
BLOCK
5
20
100
AcDbEntity
100
AcDbBlockBegin
2
*MODEL_SPACE
0
ENDBLK
5
21
100
AcDbEntity
100
AcDbBlockEnd
0
BLOCK
5
1C
100
AcDbEntity
100
AcDbBlockBegin
2
*PAPER_SPACE
0
ENDBLK
5
1D
100
AcDbEntity
100
AcDbBlockEnd
0
ENDSEC
0
SECTION
2
ENTITIES
0
CIRCLE
5
100
100
AcDbEntity
8
0
100
AcDbCircle
10
-58.396822289753331
20
-12.053543105731311
30
0
40
1.4999999999999947
210
0
220
0
230
1
0
LWPOLYLINE
5
101
100
AcDbEntity
8
0
100
AcDbPolyline
90
46
70
1
43
0.0
10
-14.584264573716965
20
-94.695459280061058
42
1.0060461589524179
10
-13.091522850644594
20
-92.09326883160692
10
-13.130957521326119
20
-92.071735184502984
42
0.0018478813906103741
10
-13.140786018512005
20
-92.066604125511702
10
-13.235609375000021
20
-92.023300000000035
10
-13.336000000000023
20
-91.98585625000004
10
-13.438803125000023
20
-91.955671875000036
10
-13.543500000000023
20
-91.932893750000034
10
-13.649556250000021
20
-91.917646875000031
10
-13.756428125000021
20
-91.910003125000031
10
-13.863571875000019
20
-91.910003125000031
10
-13.970443750000022
20
-91.917646875000031
10
-14.076500000000024
20
-91.932893750000034
10
-14.181196875000023
20
-91.955671875000036
10
-14.28400000000002
20
-91.98585625000004
10
-14.384390625000023
20
-92.023300000000035
10
-14.481853125000024
20
-92.067809375000024
10
-14.575890625000024
20
-92.119159375000024
10
-14.666028125000024
20
-92.177084375000049
10
-14.751803125000023
20
-92.241296875000032
10
-14.832775000000019
20
-92.311459375000027
10
-14.908540625000022
20
-92.387225000000029
10
-14.97870312500002
20
-92.468196875000046
10
-15.042915625000024
20
-92.55397187500003
10
-15.100840625000021
20
-92.644109375000028
10
-15.152190625000021
20
-92.738146875000041
10
-15.196700000000023
20
-92.835609375000018
10
-15.234143750000024
20
-92.936000000000035
10
-15.264328125000022
20
-93.038803125000044
10
-15.287106250000022
20
-93.143500000000031
10
-15.302353125000025
20
-93.249556250000026
10
-15.309996875000023
20
-93.356428125000036
10
-15.309996875000023
20
-93.463571875000042
10
-15.302353125000025
20
-93.570443750000024
10
-15.287106250000022
20
-93.676500000000033
10
-15.264328125000022
20
-93.781196875000035
10
-15.234143750000024
20
-93.884000000000043
10
-15.196700000000023
20
-93.984390625000032
10
-15.152190625000021
20
-94.081853125000023
10
-15.100840625000021
20
-94.175890625000022
10
-15.042915625000024
20
-94.266028125000048
10
-14.97870312500002
20
-94.351803125000032
10
-14.908540625000022
20
-94.432775000000049
10
-14.832775000000019
20
-94.508540625000023
10
-14.751803125000023
20
-94.578703125000033
10
-14.666028125000024
20
-94.642915625000029
0
LWPOLYLINE
5
102
100
AcDbEntity
8
0
100
AcDbPolyline
90
45
70
1
43
0.0
10
-84.742842305661341
20
-110.83180889555251
42
0.99041546777990419
10
-87.640135600619629
20
-111.60953432965738
10
-87.62414375000003
20
-111.66400000000003
10
-87.586700000000064
20
-111.76439062500002
10
-87.542190625000018
20
-111.86185312500002
10
-87.490840625000033
20
-111.95589062500002
10
-87.432915625000049
20
-112.04602812500002
10
-87.368703125000053
20
-112.13180312500002
10
-87.29854062500003
20
-112.21277500000002
10
-87.222775000000041
20
-112.28854062500002
10
-87.141803125000052
20
-112.35870312500003
10
-87.05602812500004
20
-112.42291562500002
10
-86.965890625000029
20
-112.48084062500001
10
-86.87185312500003
20
-112.53219062500003
10
-86.774390625000066
20
-112.57670000000003
10
-86.674000000000021
20
-112.61414375000003
10
-86.571196875000027
20
-112.64432812500003
10
-86.466500000000053
20
-112.66710625000002
10
-86.360443750000044
20
-112.68235312500002
10
-86.253571875000034
20
-112.68999687500002
10
-86.146428125000028
20
-112.68999687500002
10
-86.039556250000047
20
-112.68235312500002
10
-85.933500000000038
20
-112.66710625000002
10
-85.828803125000064
20
-112.64432812500003
10
-85.726000000000028
20
-112.61414375000003
10
-85.625609375000067
20
-112.57670000000003
10
-85.528146875000033
20
-112.53219062500003
10
-85.43410937500002
20
-112.48084062500001
10
-85.343971875000051
20
-112.42291562500002
10
-85.258196875000053
20
-112.35870312500003
10
-85.17722500000005
20
-112.28854062500002
10
-85.101459375000019
20
-112.21277500000002
10
-85.031296875000066
20
-112.13180312500002
10
-84.967084375000042
20
-112.04602812500002
10
-84.90915937500003
20
-111.95589062500002
10
-84.857809375000031
20
-111.86185312500002
10
-84.813300000000027
20
-111.76439062500002
10
-84.775856250000032
20
-111.66400000000003
10
-84.745671875000028
20
-111.56119687500002
10
-84.722893750000026
20
-111.45650000000002
10
-84.707646875000052
20
-111.35044375000001
10
-84.700003125000052
20
-111.24357187500003
10
-84.700003125000052
20
-111.13642812500002
10
-84.707646875000052
20
-111.02955625000001
10
-84.722893750000026
20
-110.92350000000002
0
CIRCLE
5
103
100
AcDbEntity
8
0
100
AcDbCircle
10
-0.39682228975365774
20
46.946456894268366
30
0
40
1.4999999999999987
210
0
220
0
230
1
0
CIRCLE
5
104
100
AcDbEntity
8
0
100
AcDbCircle
10
-58.39682228975267
20
46.946456894268671
30
0
40
1.4999999999999947
210
0
220
0
230
1
0
CIRCLE
5
105
100
AcDbEntity
8
0
100
AcDbCircle
10
-29.396822289753821
20
-12.05354310573146
30
0
40
1.4999999999999991
210
0
220
0
230
1
0
LWPOLYLINE
5
106
100
AcDbEntity
8
0
100
AcDbPolyline
90
44
70
1
43
0.0
10
-13.649556250000005
20
-27.592353125000031
10
-13.739265654766438
20
-27.598769371207798
42
-1.0413302103070663
10
-13.739303276995097
20
-24.601227937954206
10
-13.649556250000005
20
-24.607646875000029
10
-13.543500000000009
20
-24.622893750000028
10
-13.438803125000007
20
-24.645671875000037
10
-13.336000000000007
20
-24.675856250000034
10
-13.235609375000006
20
-24.713300000000036
10
-13.138146875000006
20
-24.757809375000033
10
-13.044109375000009
20
-24.809159375000025
10
-12.953971875000006
20
-24.867084375000044
10
-12.868196875000006
20
-24.931296875000033
10
-12.787225000000008
20
-25.001459375000028
10
-12.711459375000008
20
-25.077225000000034
10
-12.641296875000007
20
-25.158196875000041
10
-12.577084375000005
20
-25.243971875000035
10
-12.519159375000008
20
-25.334109375000029
10
-12.467809375000007
20
-25.428146875000035
10
-12.423300000000006
20
-25.525609375000027
10
-12.385856250000005
20
-25.626000000000015
10
-12.355671875000008
20
-25.728803125000024
10
-12.332893750000007
20
-25.833500000000029
10
-12.317646875000008
20
-25.939556250000031
10
-12.310003125000007
20
-26.046428125000016
10
-12.310003125000007
20
-26.153571875000026
10
-12.317646875000008
20
-26.260443750000029
10
-12.332893750000007
20
-26.36650000000003
10
-12.355671875000008
20
-26.471196875
10
-12.385856250000005
20
-26.574000000000026
10
-12.423300000000006
20
-26.674390625000033
10
-12.467809375000007
20
-26.771853125000007
10
-12.519159375000008
20
-26.865890625000013
10
-12.577084375000005
20
-26.956028125000007
10
-12.641296875000007
20
-27.041803125000037
10
-12.711459375000008
20
-27.122775000000008
10
-12.787225000000008
20
-27.198540625000014
10
-12.868196875000006
20
-27.268703125000027
10
-12.953971875000006
20
-27.332915625000034
10
-13.044109375000009
20
-27.390840625000035
10
-13.138146875000006
20
-27.442190625000027
10
-13.235609375000006
20
-27.486700000000024
10
-13.336000000000007
20
-27.524143750000025
10
-13.438803125000007
20
-27.554328125000023
10
-13.543500000000009
20
-27.577106250000032
0
CIRCLE
5
107
100
AcDbEntity
8
0
100
AcDbCircle
10
-86.199998073279858
20
-26.099999416619539
30
0
40
1.5000000000000036
210
0
220
0
230
1
0
CIRCLE
5
108
100
AcDbEntity
8
0
100
AcDbCircle
10
-0.39682228975433276
20
-12.053543105731613
30
0
40
1.4999999999999987
210
0
220
0
230
1
0
CIRCLE
5
109
100
AcDbEntity
8
0
100
AcDbCircle
10
-29.396822289753164
20
46.946456894268529
30
0
40
1.4999999999999991
210
0
220
0
230
1
0
CIRCLE
5
110
100
AcDbEntity
8
0
100
AcDbCircle
10
-3.1687501260068629
20
-22.523748748332011
30
0
40
1.4999999999999971
210
0
220
-0
230
1
0
CIRCLE
5
111
100
AcDbEntity
8
0
100
AcDbCircle
10
-3.1687501260068629
20
-62.523748748332011
30
0
40
1.4999999999999971
210
0
220
-0
230
1
0
CIRCLE
5
112
100
AcDbEntity
8
0
100
AcDbCircle
10
-113.16875012600687
20
-62.523748748332011
30
0
40
1.5000000000000036
210
0
220
-0
230
1
0
CIRCLE
5
113
100
AcDbEntity
8
0
100
AcDbCircle
10
-113.16875012600687
20
17.476251251667989
30
0
40
1.5000000000000036
210
0
220
-0
230
1
0
CIRCLE
5
114
100
AcDbEntity
8
0
100
AcDbCircle
10
-23.168750126006863
20
52.476251251667989
30
0
40
1.5000000000000036
210
0
220
-0
230
1
0
CIRCLE
5
115
100
AcDbEntity
8
0
100
AcDbCircle
10
-93.16875012600687
20
-97.523748748332011
30
0
40
1.5000000000000036
210
0
220
-0
230
1
0
CIRCLE
5
116
100
AcDbEntity
8
0
100
AcDbCircle
10
-93.16875012600687
20
52.476251251667989
30
0
40
1.5000000000000036
210
0
220
-0
230
1
0
CIRCLE
5
117
100
AcDbEntity
8
0
100
AcDbCircle
10
-23.168750126006863
20
-97.523748748332011
30
0
40
1.5000000000000036
210
0
220
-0
230
1
0
CIRCLE
5
118
100
AcDbEntity
8
0
100
AcDbCircle
10
-58.168750126006863
20
57.476251251667989
30
0
40
2.0000000000000018
210
0
220
-0
230
1
0
CIRCLE
5
119
100
AcDbEntity
8
0
100
AcDbCircle
10
-113.16875012600687
20
-22.523748748332011
30
0
40
1.5000000000000036
210
0
220
-0
230
1
0
CIRCLE
5
120
100
AcDbEntity
8
0
100
AcDbCircle
10
-3.1687501260068629
20
17.476251251667989
30
0
40
1.4999999999999971
210
0
220
-0
230
1
0
CIRCLE
5
121
100
AcDbEntity
8
0
100
AcDbCircle
10
-58.168750126006863
20
-102.52374874833201
30
0
40
2.0000000000000018
210
0
220
-0
230
1
0
LWPOLYLINE
5
122
100
AcDbEntity
8
0
100
AcDbPolyline
90
4
70
1
43
0.0
10
11.831249873993137
20
72.476251251667989
10
-128.16875012600687
20
72.476251251667989
10
-128.16875012600687
20
-117.52374874833201
10
11.831249873993137
20
-117.52374874833201
0
LWPOLYLINE
5
123
100
AcDbEntity
8
0
100
AcDbPolyline
90
4
70
1
43
0.0
10
-0.16875012600686468
20
32.476251251667989
10
-15.168750126006865
20
32.476251251667989
10
-15.168750126006865
20
2.4762512516679891
10
-0.16875012600686468
20
2.4762512516679891
0
LWPOLYLINE
5
124
100
AcDbEntity
8
0
100
AcDbPolyline
90
4
70
1
43
0.0
10
-3.1687501260068629
20
-102.52374874833201
10
1.8312498739931371
20
-102.52374874833201
10
1.8312498739931371
20
-112.52374874833201
10
-3.1687501260068629
20
-112.52374874833201
0
ENDSEC
0
SECTION
2
OBJECTS
0
DICTIONARY
5
C
100
AcDbDictionary
3
ACAD_GROUP
350
D
3
ACAD_MLINESTYLE
350
17
0
DICTIONARY
5
D
100
AcDbDictionary
0
DICTIONARY
5
1A
330
C
100
AcDbDictionary
0
DICTIONARY
5
17
100
AcDbDictionary
0
ENDSEC
0
EOF
