0
SECTION
2
HEADER
9
$INSUNITS
70
4
9
$ACADVER
1
AC1014
9
$HANDSEED
5
FFFF
0
ENDSEC
0
SECTION
2
TABLES
0
TABLE
2
VPORT
5
8
100
AcDbSymbolTable
0
ENDTAB
0
TABLE
2
LTYPE
5
5
100
AcDbSymbolTable
0
LTYPE
5
14
100
AcDbSymbolTableRecord
100
AcDbLinetypeTableRecord
2
BYBLOCK
70
0
0
LTYPE
5
15
100
AcDbSymbolTableRecord
100
AcDbLinetypeTableRecord
2
BYLAYER
70
0
0
ENDTAB
0
TABLE
2
LAYER
5
2
100
AcDbSymbolTable
70
2
0
LAYER
5
50
100
AcDbSymbolTableRecord
100
AcDbLayerTableRecord
2
0
70
0
6
CONTINUOUS
0
ENDTAB
0
TABLE
2
STYLE
5
3
100
AcDbSymbolTable
70
1
0
STYLE
5
11
100
AcDbSymbolTableRecord
100
AcDbTextStyleTableRecord
2
STANDARD
70
0
0
ENDTAB
0
TABLE
2
VIEW
5
6
100
AcDbSymbolTable
70
0
0
ENDTAB
0
TABLE
2
UCS
5
7
100
AcDbSymbolTable
70
0
0
ENDTAB
0
TABLE
2
APPID
5
9
100
AcDbSymbolTable
70
2
0
APPID
5
12
100
AcDbSymbolTableRecord
100
AcDbRegAppTableRecord
2
ACAD
70
0
0
ENDTAB
0
TABLE
2
DIMSTYLE
5
A
100
AcDbSymbolTable
70
1
0
ENDTAB
0
TABLE
2
BLOCK_RECORD
5
1
100
AcDbSymbolTable
70
1
0
BLOCK_RECORD
5
1F
100
AcDbSymbolTableRecord
100
AcDbBlockTableRecord
2
*MODEL_SPACE
0
BLOCK_RECORD
5
1B
100
AcDbSymbolTableRecord
100
AcDbBlockTableRecord
2
*PAPER_SPACE
0
ENDTAB
0
ENDSEC
0
SECTION
2
BLOCKS
0
BLOCK
5
20
100
AcDbEntity
100
AcDbBlockBegin
2
*MODEL_SPACE
0
ENDBLK
5
21
100
AcDbEntity
100
AcDbBlockEnd
0
BLOCK
5
1C
100
AcDbEntity
100
AcDbBlockBegin
2
*PAPER_SPACE
0
ENDBLK
5
1D
100
AcDbEntity
100
AcDbBlockEnd
0
ENDSEC
0
SECTION
2
ENTITIES
0
LWPOLYLINE
5
100
100
AcDbEntity
8
0
100
AcDbPolyline
90
88
70
1
43
0.0
10
-58.36642812500002
20
-26.25
10
-58.473571875000019
20
-26.25
10
-58.580443750000001
20
-26.242356250000004
10
-58.686500000000009
20
-26.227109375000005
10
-58.791196875000004
20
-26.20433125000001
10
-58.89400000000002
20
-26.174146875000002
10
-58.994390625000008
20
-26.136703125
10
-59.091853125
20
-26.092193750000003
10
-59.18589375000002
20
-26.040843750000001
10
-59.276028125000011
20
-25.982915625
10
-59.361803125000002
20
-25.918706250000003
10
-59.442778125000004
20
-25.848540624999998
10
-59.518540625000007
20
-25.772778125000002
10
-59.588706250000001
20
-25.691803125000003
10
-59.65291562500002
20
-25.606028125000005
10
-59.710843750000002
20
-25.515893750000004
10
-59.762193750000002
20
-25.421853124999998
10
-59.80670312500002
20
-25.324390624999999
10
-59.844146875
20
-25.224000000000004
10
-59.874331249999997
20
-25.121196875000006
10
-59.897109374999999
20
-25.016500000000001
10
-59.912356250000009
20
-24.910443749999999
10
-59.920000000000009
20
-24.80357187500001
10
-59.920000000000009
20
-24.696428125000001
10
-59.912356250000009
20
-24.589556250000001
10
-59.897109374999999
20
-24.48350000000001
10
-59.874331249999997
20
-24.378803125000005
10
-59.844146875
20
-24.276
10
-59.80670312500002
20
-24.175609375000001
10
-59.762193750000002
20
-24.078146875000002
10
-59.710843750000002
20
-23.98410625
10
-59.65291562500002
20
-23.893971874999998
10
-59.588706250000001
20
-23.808196875000004
10
-59.518540625000007
20
-23.727221875000005
10
-59.442778125000004
20
-23.651459375000002
10
-59.361803125000002
20
-23.581293750000004
10
-59.276028125000011
20
-23.517084375000003
10
-59.18589375000002
20
-23.459156249999999
10
-59.091853125
20
-23.407806250000004
10
-58.994390625000008
20
-23.363296875000003
10
-58.89400000000002
20
-23.325853125000002
10
-58.791196875000004
20
-23.295668750000004
10
-58.686500000000009
20
-23.272890624999999
10
-58.580443750000001
20
-23.25764375
10
-58.473571875000019
20
-23.25
10
-58.36642812500002
20
-23.25
10
-58.259556250000003
20
-23.25764375
10
-58.153500000000008
20
-23.272890624999999
10
-58.048803125000006
20
-23.295668750000004
10
-57.946000000000019
20
-23.325853125000002
10
-57.845609375000002
20
-23.363296875000003
10
-57.74814687500001
20
-23.407806250000004
10
-57.654106250000012
20
-23.459156249999999
10
-57.563971875
20
-23.517084375000003
10
-57.478196875000009
20
-23.581293750000004
10
-57.397221875
20
-23.651459375000002
10
-57.321459375000003
20
-23.727221875000005
10
-57.251293750000009
20
-23.808196875000004
10
-57.187084375000019
20
-23.893971874999998
10
-57.129156250000008
20
-23.98410625
10
-57.077806250000009
20
-24.078146875000002
10
-57.033296875000019
20
-24.175609375000001
10
-56.995853124999996
20
-24.276
10
-56.965668750000013
20
-24.378803125000005
10
-56.942890625000004
20
-24.48350000000001
10
-56.927643750000001
20
-24.589556250000001
10
-56.920000000000002
20
-24.696428125000001
10
-56.920000000000002
20
-24.80357187500001
10
-56.927643750000001
20
-24.910443749999999
10
-56.942890625000004
20
-25.016500000000001
10
-56.965668750000013
20
-25.121196875000006
10
-56.995853124999996
20
-25.224000000000004
10
-57.033296875000019
20
-25.324390624999999
10
-57.077806250000009
20
-25.421853124999998
10
-57.129156250000008
20
-25.515893750000004
10
-57.187084375000019
20
-25.606028125000005
10
-57.251293750000009
20
-25.691803125000003
10
-57.321459375000003
20
-25.772778125000002
10
-57.397221875
20
-25.848540624999998
10
-57.478196875000009
20
-25.918706250000003
10
-57.563971875
20
-25.982915625
10
-57.654106250000012
20
-26.040843750000001
10
-57.74814687500001
20
-26.092193750000003
10
-57.845609375000002
20
-26.136703125
10
-57.946000000000019
20
-26.174146875000002
10
-58.048803125000006
20
-26.20433125000001
10
-58.153500000000008
20
-26.227109375000005
10
-58.259556250000003
20
-26.242356250000004
0
LWPOLYLINE
5
101
100
AcDbEntity
8
0
100
AcDbPolyline
90
88
70
1
43
0.0
10
-22.612775000000006
20
-4.9085406249999997
10
-22.688540625000005
20
-4.832774999999998
10
-22.758703125
20
-4.7518031250000003
10
-22.822915625
20
-4.6660281250000013
10
-22.880840625000005
20
-4.5758906250000031
10
-22.932190625
20
-4.4818531250000015
10
-22.976700000000001
20
-4.3843906250000009
10
-23.014143749999999
20
-4.2839999999999989
10
-23.044328125
20
-4.1811968749999995
10
-23.067106250000002
20
-4.0765000000000029
10
-23.082353125000004
20
-3.9704437500000012
10
-23.089996875000001
20
-3.8635718749999981
10
-23.089996875000001
20
-3.7564281249999976
10
-23.082353125000004
20
-3.6495562499999989
10
-23.067106250000002
20
-3.5435000000000016
10
-23.044328125
20
-3.4388031250000006
10
-23.014143749999999
20
-3.3360000000000012
10
-22.976700000000001
20
-3.2356093749999992
10
-22.932190625
20
-3.1381468749999986
10
-22.880840625000005
20
-3.0441093750000014
10
-22.822915625
20
-2.9539718749999988
10
-22.758703125
20
-2.8681968749999998
10
-22.688540625000005
20
-2.7872250000000021
10
-22.612775000000006
20
-2.7114593750000004
10
-22.531803125
20
-2.641296875000001
10
-22.446028125000002
20
-2.5770843749999983
10
-22.355890625000004
20
-2.5191593750000019
10
-22.261853124999998
20
-2.4678093750000007
10
-22.164390625000003
20
-2.4232999999999993
10
-22.064
20
-2.385856249999998
10
-21.961196874999999
20
-2.3556718750000005
10
-21.856500000000004
20
-2.3328937500000002
10
-21.750443750000002
20
-2.3176468750000012
10
-21.643571875000006
20
-2.3100031249999997
10
-21.536428125
20
-2.3100031249999997
10
-21.429556250000005
20
-2.3176468750000012
10
-21.323500000000006
20
-2.3328937500000002
10
-21.218803125000001
20
-2.3556718750000005
10
-21.116
20
-2.385856249999998
10
-21.015609375
20
-2.4232999999999993
10
-20.918146875000005
20
-2.4678093750000007
10
-20.824109375000006
20
-2.5191593750000019
10
-20.733971875000002
20
-2.5770843749999983
10
-20.648196875
20
-2.641296875000001
10
-20.567225000000001
20
-2.7114593750000004
10
-20.491459375000002
20
-2.7872250000000021
10
-20.421296875000003
20
-2.8681968749999998
10
-20.357084374999999
20
-2.9539718749999988
10
-20.299159374999999
20
-3.0441093750000014
10
-20.247809375000003
20
-3.1381468749999986
10
-20.203299999999999
20
-3.2356093749999992
10
-20.165856250000004
20
-3.3360000000000012
10
-20.135671875
20
-3.4388031250000006
10
-20.112893750000001
20
-3.5435000000000016
10
-20.097646875000002
20
-3.6495562499999989
10
-20.09000312500001
20
-3.7564281249999976
10
-20.09000312500001
20
-3.8635718749999981
10
-20.097646875000002
20
-3.9704437500000012
10
-20.112893750000001
20
-4.0765000000000029
10
-20.135671875
20
-4.1811968749999995
10
-20.165856250000004
20
-4.2839999999999989
10
-20.203299999999999
20
-4.3843906250000009
10
-20.247809375000003
20
-4.4818531250000015
10
-20.299159374999999
20
-4.5758906250000031
10
-20.357084374999999
20
-4.6660281250000013
10
-20.421296875000003
20
-4.7518031250000003
10
-20.491459375000002
20
-4.832774999999998
10
-20.567225000000001
20
-4.9085406249999997
10
-20.648196875
20
-4.9787031249999991
10
-20.733971875000002
20
-5.0429156250000018
10
-20.824109375000006
20
-5.1008406249999982
10
-20.918146875000005
20
-5.1521906249999994
10
-21.015609375
20
-5.1967000000000008
10
-21.116
20
-5.2341437500000021
10
-21.218803125000001
20
-5.2643281249999996
10
-21.323500000000006
20
-5.2871062499999999
10
-21.429556250000005
20
-5.3023531250000033
10
-21.536428125
20
-5.3099968750000004
10
-21.643571875000006
20
-5.3099968750000004
10
-21.750443750000002
20
-5.3023531250000033
10
-21.856500000000004
20
-5.2871062499999999
10
-21.961196874999999
20
-5.2643281249999996
10
-22.064
20
-5.2341437500000021
10
-22.164390625000003
20
-5.1967000000000008
10
-22.261853124999998
20
-5.1521906249999994
10
-22.355890625000004
20
-5.1008406249999982
10
-22.446028125000002
20
-5.0429156250000018
10
-22.531803125
20
-4.9787031249999991
0
LWPOLYLINE
5
102
100
AcDbEntity
8
0
100
AcDbPolyline
90
88
70
1
43
0.0
10
-89.571853125000004
20
-77.542190625000003
10
-89.665890625000003
20
-77.490840625000004
10
-89.756028125
20
-77.432915625000021
10
-89.841803124999998
20
-77.368703125000025
10
-89.922775000000001
20
-77.298540625000001
10
-89.998540625000004
20
-77.222775000000013
10
-90.068703124999999
20
-77.141803125000024
10
-90.132915624999995
20
-77.056028125000012
10
-90.190840625000007
20
-76.965890625
10
-90.242190625000006
20
-76.871853125000001
10
-90.286699999999996
20
-76.774390625000024
10
-90.324143750000005
20
-76.673999999999992
10
-90.354328124999995
20
-76.571196874999998
10
-90.377106250000011
20
-76.466500000000025
10
-90.392353125
20
-76.360443750000002
10
-90.399996874999999
20
-76.253571875000006
10
-90.399996874999999
20
-76.146428125
10
-90.392353125
20
-76.039556250000004
10
-90.377106250000011
20
-75.933500000000024
10
-90.354328124999995
20
-75.828803125000022
10
-90.324143750000005
20
-75.725999999999999
10
-90.286699999999996
20
-75.625609375000025
10
-90.242190625000006
20
-75.528146875000004
10
-90.190840625000007
20
-75.434109375000006
10
-90.132915624999995
20
-75.343971875000022
10
-90.068703124999999
20
-75.258196875000024
10
-89.998540625000004
20
-75.177225000000021
10
-89.922775000000001
20
-75.101459375000005
10
-89.841803124999998
20
-75.031296875000038
10
-89.756028125
20
-74.967084375000013
10
-89.665890625000003
20
-74.909159375000002
10
-89.571853125000004
20
-74.857809375000002
10
-89.474390625000012
20
-74.813299999999998
10
-89.374000000000024
20
-74.775856250000004
10
-89.271196875000015
20
-74.745671874999999
10
-89.166500000000013
20
-74.722893749999997
10
-89.060443750000005
20
-74.707646875000023
10
-88.953571875000023
20
-74.700003125000023
10
-88.846428125000017
20
-74.700003125000023
10
-88.739556250000007
20
-74.707646875000023
10
-88.633499999999998
20
-74.722893749999997
10
-88.528803125000039
20
-74.745671874999999
10
-88.426000000000016
20
-74.775856250000004
10
-88.325609374999999
20
-74.813299999999998
10
-88.228146875000022
20
-74.857809375000002
10
-88.134109375000023
20
-74.909159375000002
10
-88.043971875000025
20
-74.967084375000013
10
-87.958196874999999
20
-75.031296875000038
10
-87.877225000000024
20
-75.101459375000005
10
-87.801459375000022
20
-75.177225000000021
10
-87.731296875000012
20
-75.258196875000024
10
-87.667084375000002
20
-75.343971875000022
10
-87.609159375000004
20
-75.434109375000006
10
-87.557809375000005
20
-75.528146875000004
10
-87.513300000000015
20
-75.625609375000025
10
-87.475856250000007
20
-75.725999999999999
10
-87.445671875000016
20
-75.828803125000022
10
-87.42289375
20
-75.933500000000024
10
-87.407646875000012
20
-76.039556250000004
10
-87.400003124999998
20
-76.146428125
10
-87.400003124999998
20
-76.253571875000006
10
-87.407646875000012
20
-76.360443750000002
10
-87.42289375
20
-76.466500000000025
10
-87.445671875000016
20
-76.571196874999998
10
-87.475856250000007
20
-76.673999999999992
10
-87.513300000000015
20
-76.774390625000024
10
-87.557809375000005
20
-76.871853125000001
10
-87.609159375000004
20
-76.965890625
10
-87.667084375000002
20
-77.056028125000012
10
-87.731296875000012
20
-77.141803125000024
10
-87.801459375000022
20
-77.222775000000013
10
-87.877225000000024
20
-77.298540625000001
10
-87.958196874999999
20
-77.368703125000025
10
-88.043971875000025
20
-77.432915625000021
10
-88.134109375000023
20
-77.490840625000004
10
-88.228146875000022
20
-77.542190625000003
10
-88.325609374999999
20
-77.586700000000022
10
-88.426000000000016
20
-77.624143750000002
10
-88.528803125000039
20
-77.654328125000006
10
-88.633499999999998
20
-77.677106250000037
10
-88.739556250000007
20
-77.692353124999997
10
-88.846428125000017
20
-77.699996875000025
10
-88.953571875000023
20
-77.699996875000025
10
-89.060443750000005
20
-77.692353124999997
10
-89.166500000000013
20
-77.677106250000037
10
-89.271196875000015
20
-77.654328125000006
10
-89.374000000000024
20
-77.624143750000002
10
-89.474390625000012
20
-77.586700000000022
0
LWPOLYLINE
5
103
100
AcDbEntity
8
0
100
AcDbPolyline
90
88
70
1
43
0.0
10
-2.7872249999999976
20
-77.298540625000001
10
-2.8681968750000042
20
-77.368703125000025
10
-2.9539718749999988
20
-77.432915625000021
10
-3.0441093750000014
20
-77.490840625000004
10
-3.1381468749999986
20
-77.542190625000003
10
-3.2356093749999992
20
-77.586700000000022
10
-3.3359999999999967
20
-77.624143750000002
10
-3.4388031250000051
20
-77.654328125000006
10
-3.5435000000000016
20
-77.677106250000037
10
-3.6495562500000034
20
-77.692353124999997
10
-3.7564281249999976
20
-77.699996875000025
10
-3.8635718749999981
20
-77.699996875000025
10
-3.9704437500000012
20
-77.692353124999997
10
-4.0765000000000029
20
-77.677106250000037
10
-4.1811968749999995
20
-77.654328125000006
10
-4.2839999999999989
20
-77.624143750000002
10
-4.3843906249999964
20
-77.586700000000022
10
-4.4818531249999971
20
-77.542190625000003
10
-4.5758906250000031
20
-77.490840625000004
10
-4.6660281249999969
20
-77.432915625000021
10
-4.7518031250000003
20
-77.368703125000025
10
-4.832774999999998
20
-77.298540625000001
10
-4.9085406250000041
20
-77.222775000000013
10
-4.9787031249999991
20
-77.141803125000024
10
-5.0429156249999973
20
-77.056028125000012
10
-5.1008406249999982
20
-76.965890625
10
-5.1521906249999994
20
-76.871853125000001
10
-5.1966999999999963
20
-76.774390625000024
10
-5.2341437499999977
20
-76.673999999999992
10
-5.264328125000004
20
-76.571196874999998
10
-5.2871062499999955
20
-76.466500000000025
10
-5.3023531250000033
20
-76.360443750000002
10
-5.3099968750000048
20
-76.253571875000006
10
-5.3099968750000048
20
-76.146428125
10
-5.3023531250000033
20
-76.039556250000004
10
-5.2871062499999955
20
-75.933500000000024
10
-5.264328125000004
20
-75.828803125000022
10
-5.2341437499999977
20
-75.725999999999999
10
-5.1966999999999963
20
-75.625609375000025
10
-5.1521906249999994
20
-75.528146875000004
10
-5.1008406249999982
20
-75.434109375000006
10
-5.0429156249999973
20
-75.343971875000022
10
-4.9787031249999991
20
-75.258196875000024
10
-4.9085406250000041
20
-75.177225000000021
10
-4.832774999999998
20
-75.101459375000005
10
-4.7518031250000003
20
-75.031296875000038
10
-4.6660281249999969
20
-74.967084375000013
10
-4.5758906250000031
20
-74.909159375000002
10
-4.4818531249999971
20
-74.857809375000002
10
-4.3843906249999964
20
-74.813299999999998
10
-4.2839999999999989
20
-74.775856250000004
10
-4.1811968749999995
20
-74.745671874999999
10
-4.0765000000000029
20
-74.722893749999997
10
-3.9704437500000012
20
-74.707646875000023
10
-3.8635718749999981
20
-74.700003125000023
10
-3.7564281249999976
20
-74.700003125000023
10
-3.6495562500000034
20
-74.707646875000023
10
-3.5435000000000016
20
-74.722893749999997
10
-3.4388031250000051
20
-74.745671874999999
10
-3.3359999999999967
20
-74.775856250000004
10
-3.2356093749999992
20
-74.813299999999998
10
-3.1381468749999986
20
-74.857809375000002
10
-3.0441093750000014
20
-74.909159375000002
10
-2.9539718749999988
20
-74.967084375000013
10
-2.8681968750000042
20
-75.031296875000038
10
-2.7872249999999976
20
-75.101459375000005
10
-2.7114593750000004
20
-75.177225000000021
10
-2.6412968749999965
20
-75.258196875000024
10
-2.5770843749999983
20
-75.343971875000022
10
-2.5191593749999974
20
-75.434109375000006
10
-2.4678093749999963
20
-75.528146875000004
10
-2.4232999999999993
20
-75.625609375000025
10
-2.385856249999998
20
-75.725999999999999
10
-2.3556718750000005
20
-75.828803125000022
10
-2.3328937500000002
20
-75.933500000000024
10
-2.3176468750000012
20
-76.039556250000004
10
-2.3100031249999997
20
-76.146428125
10
-2.3100031249999997
20
-76.253571875000006
10
-2.3176468750000012
20
-76.360443750000002
10
-2.3328937500000002
20
-76.466500000000025
10
-2.3556718750000005
20
-76.571196874999998
10
-2.385856249999998
20
-76.673999999999992
10
-2.4232999999999993
20
-76.774390625000024
10
-2.4678093749999963
20
-76.871853125000001
10
-2.5191593749999974
20
-76.965890625
10
-2.5770843749999983
20
-77.056028125000012
10
-2.6412968749999965
20
-77.141803125000024
10
-2.7114593750000004
20
-77.222775000000013
0
LWPOLYLINE
5
104
100
AcDbEntity
8
0
100
AcDbPolyline
90
88
70
1
43
0.0
10
-87.877225000000024
20
-4.9085406249999997
10
-87.958196874999999
20
-4.9787031249999991
10
-88.043971875000025
20
-5.0429156250000018
10
-88.134109375000023
20
-5.1008406249999982
10
-88.228146875000022
20
-5.1521906249999994
10
-88.325609374999999
20
-5.1967000000000008
10
-88.426000000000016
20
-5.2341437500000021
10
-88.528803125000039
20
-5.2643281249999996
10
-88.633499999999998
20
-5.2871062499999999
10
-88.739556250000007
20
-5.3023531250000033
10
-88.846428125000017
20
-5.3099968750000004
10
-88.953571875000023
20
-5.3099968750000004
10
-89.060443750000005
20
-5.3023531250000033
10
-89.166500000000013
20
-5.2871062499999999
10
-89.271196875000015
20
-5.2643281249999996
10
-89.374000000000024
20
-5.2341437500000021
10
-89.474390625000012
20
-5.1967000000000008
10
-89.571853125000004
20
-5.1521906249999994
10
-89.665890625000003
20
-5.1008406249999982
10
-89.756028125
20
-5.0429156250000018
10
-89.841803124999998
20
-4.9787031249999991
10
-89.922775000000001
20
-4.9085406249999997
10
-89.998540625000004
20
-4.832774999999998
10
-90.068703124999999
20
-4.7518031250000003
10
-90.132915624999995
20
-4.6660281250000013
10
-90.190840625000007
20
-4.5758906250000031
10
-90.242190625000006
20
-4.4818531250000015
10
-90.286699999999996
20
-4.3843906250000009
10
-90.324143750000005
20
-4.2839999999999989
10
-90.354328124999995
20
-4.1811968749999995
10
-90.377106250000011
20
-4.0765000000000029
10
-90.392353125
20
-3.9704437500000012
10
-90.399996874999999
20
-3.8635718749999981
10
-90.399996874999999
20
-3.7564281249999976
10
-90.392353125
20
-3.6495562499999989
10
-90.377106250000011
20
-3.5435000000000016
10
-90.354328124999995
20
-3.4388031250000006
10
-90.324143750000005
20
-3.3360000000000012
10
-90.286699999999996
20
-3.2356093749999992
10
-90.242190625000006
20
-3.1381468749999986
10
-90.190840625000007
20
-3.0441093750000014
10
-90.132915624999995
20
-2.9539718749999988
10
-90.068703124999999
20
-2.8681968749999998
10
-89.998540625000004
20
-2.7872250000000021
10
-89.922775000000001
20
-2.7114593750000004
10
-89.841803124999998
20
-2.641296875000001
10
-89.756028125
20
-2.5770843749999983
10
-89.665890625000003
20
-2.5191593750000019
10
-89.571853125000004
20
-2.4678093750000007
10
-89.474390625000012
20
-2.4232999999999993
10
-89.374000000000024
20
-2.385856249999998
10
-89.271196875000015
20
-2.3556718750000005
10
-89.166500000000013
20
-2.3328937500000002
10
-89.060443750000005
20
-2.3176468750000012
10
-88.953571875000023
20
-2.3100031249999997
10
-88.846428125000017
20
-2.3100031249999997
10
-88.739556250000007
20
-2.3176468750000012
10
-88.633499999999998
20
-2.3328937500000002
10
-88.528803125000039
20
-2.3556718750000005
10
-88.426000000000016
20
-2.385856249999998
10
-88.325609374999999
20
-2.4232999999999993
10
-88.228146875000022
20
-2.4678093750000007
10
-88.134109375000023
20
-2.5191593750000019
10
-88.043971875000025
20
-2.5770843749999983
10
-87.958196874999999
20
-2.641296875000001
10
-87.877225000000024
20
-2.7114593750000004
10
-87.801459375000022
20
-2.7872250000000021
10
-87.731296875000012
20
-2.8681968749999998
10
-87.667084375000002
20
-2.9539718749999988
10
-87.609159375000004
20
-3.0441093750000014
10
-87.557809375000005
20
-3.1381468749999986
10
-87.513300000000015
20
-3.2356093749999992
10
-87.475856250000007
20
-3.3360000000000012
10
-87.445671875000016
20
-3.4388031250000006
10
-87.42289375
20
-3.5435000000000016
10
-87.407646875000012
20
-3.6495562499999989
10
-87.400003124999998
20
-3.7564281249999976
10
-87.400003124999998
20
-3.8635718749999981
10
-87.407646875000012
20
-3.9704437500000012
10
-87.42289375
20
-4.0765000000000029
10
-87.445671875000016
20
-4.1811968749999995
10
-87.475856250000007
20
-4.2839999999999989
10
-87.513300000000015
20
-4.3843906250000009
10
-87.557809375000005
20
-4.4818531250000015
10
-87.609159375000004
20
-4.5758906250000031
10
-87.667084375000002
20
-4.6660281250000013
10
-87.731296875000012
20
-4.7518031250000003
10
-87.801459375000022
20
-4.832774999999998
0
LWPOLYLINE
5
105
100
AcDbEntity
8
0
100
AcDbPolyline
90
88
70
1
43
0.0
10
-23.922890625000001
20
-76.5535
10
-23.907643749999998
20
-76.659556250000023
10
-23.900000000000002
20
-76.766428125000004
10
-23.900000000000002
20
-76.873571875000025
10
-23.907643749999998
20
-76.980443750000006
10
-23.922890625000001
20
-77.086500000000001
10
-23.945668750000003
20
-77.191196875000003
10
-23.975853125
20
-77.293999999999997
10
-24.013296875000005
20
-77.394390625
10
-24.057806250000002
20
-77.491853125000006
10
-24.109156250000005
20
-77.585893749999997
10
-24.167084375000005
20
-77.676028125000002
10
-24.231293750000006
20
-77.761803125
10
-24.301459375000004
20
-77.842778125000024
10
-24.377221875000004
20
-77.918540625000006
10
-24.458196875000002
20
-77.988706250000007
10
-24.543971875
20
-78.052915624999997
10
-24.634106249999999
20
-78.110843750000001
10
-24.728146875
20
-78.16219375
10
-24.825609375000006
20
-78.206703125000004
10
-24.925999999999998
20
-78.244146874999998
10
-25.028803125000003
20
-78.274331250000003
10
-25.133500000000005
20
-78.297109375000005
10
-25.23955625
20
-78.312356250000022
10
-25.34642812500001
20
-78.320000000000022
10
-25.453571875000005
20
-78.320000000000022
10
-25.560443750000005
20
-78.312356250000022
10
-25.66650000000001
20
-78.297109375000005
10
-25.771196875000001
20
-78.274331250000003
10
-25.874000000000002
20
-78.244146874999998
10
-25.974390625000005
20
-78.206703125000004
10
-26.071853125000004
20
-78.16219375
10
-26.165893750000002
20
-78.110843750000001
10
-26.256028125000004
20
-78.052915624999997
10
-26.341803124999998
20
-77.988706250000007
10
-26.422778125000001
20
-77.918540625000006
10
-26.498540625000004
20
-77.842778125000024
10
-26.568706250000002
20
-77.761803125
10
-26.63291562500001
20
-77.676028125000002
10
-26.690843750000006
20
-77.585893749999997
10
-26.742193749999998
20
-77.491853125000006
10
-26.78670312500001
20
-77.394390625
10
-26.824146875
20
-77.293999999999997
10
-26.854331250000001
20
-77.191196875000003
10
-26.877109375000003
20
-77.086500000000001
10
-26.892356250000002
20
-76.980443750000006
10
-26.899999999999999
20
-76.873571875000025
10
-26.899999999999999
20
-76.766428125000004
10
-26.892356250000002
20
-76.659556250000023
10
-26.877109375000003
20
-76.5535
10
-26.854331250000001
20
-76.448803124999998
10
-26.824146875
20
-76.346000000000004
10
-26.78670312500001
20
-76.245609375000001
10
-26.742193749999998
20
-76.148146875000023
10
-26.690843750000006
20
-76.054106250000018
10
-26.63291562500001
20
-75.963971874999999
10
-26.568706250000002
20
-75.878196875
10
-26.498540625000004
20
-75.797221875000005
10
-26.422778125000001
20
-75.721459375000023
10
-26.341803124999998
20
-75.651293750000022
10
-26.256028125000004
20
-75.587084375000003
10
-26.165893750000002
20
-75.52915625
10
-26.071853125000004
20
-75.47780625
10
-25.974390625000005
20
-75.433296875000025
10
-25.874000000000002
20
-75.395853125000002
10
-25.771196875000001
20
-75.365668749999998
10
-25.66650000000001
20
-75.342890625000024
10
-25.560443750000005
20
-75.327643750000021
10
-25.453571875000005
20
-75.320000000000022
10
-25.34642812500001
20
-75.320000000000022
10
-25.23955625
20
-75.327643750000021
10
-25.133500000000005
20
-75.342890625000024
10
-25.028803125000003
20
-75.365668749999998
10
-24.925999999999998
20
-75.395853125000002
10
-24.825609375000006
20
-75.433296875000025
10
-24.728146875
20
-75.47780625
10
-24.634106249999999
20
-75.52915625
10
-24.543971875
20
-75.587084375000003
10
-24.458196875000002
20
-75.651293750000022
10
-24.377221875000004
20
-75.721459375000023
10
-24.301459375000004
20
-75.797221875000005
10
-24.231293750000006
20
-75.878196875
10
-24.167084375000005
20
-75.963971874999999
10
-24.109156250000005
20
-76.054106250000018
10
-24.057806250000002
20
-76.148146875000023
10
-24.013296875000005
20
-76.245609375000001
10
-23.975853125
20
-76.346000000000004
10
-23.945668750000003
20
-76.448803124999998
0
LWPOLYLINE
5
106
100
AcDbEntity
8
0
100
AcDbPolyline
90
88
70
1
43
0.0
10
-75.152356249999997
20
-75.710443750000024
10
-75.159999999999997
20
-75.603571875
10
-75.159999999999997
20
-75.496428125000023
10
-75.152356249999997
20
-75.389556249999998
10
-75.137109375000023
20
-75.283500000000004
10
-75.114331250000006
20
-75.178803125000002
10
-75.084146875000002
20
-75.076000000000022
10
-75.046703125000022
20
-74.975609375000005
10
-75.002193750000004
20
-74.878146874999999
10
-74.950843750000018
20
-74.784106250000022
10
-74.892915625000001
20
-74.693971875000003
10
-74.828706250000025
20
-74.608196875000004
10
-74.758540625000023
20
-74.527221875000023
10
-74.682778124999999
20
-74.451459374999999
10
-74.601803125000004
20
-74.381293749999998
10
-74.516028125000005
20
-74.317084375000036
10
-74.42589375
20
-74.259156250000004
10
-74.331853125000023
20
-74.207806250000004
10
-74.234390625000003
20
-74.163296875
10
-74.134
20
-74.125853125000006
10
-74.031196875000006
20
-74.095668750000002
10
-73.926500000000004
20
-74.072890624999999
10
-73.820443750000038
20
-74.057643750000011
10
-73.713571875
20
-74.049999999999997
10
-73.606428125000022
20
-74.049999999999997
10
-73.499556249999998
20
-74.057643750000011
10
-73.393500000000003
20
-74.072890624999999
10
-73.288803125000015
20
-74.095668750000002
10
-73.186000000000007
20
-74.125853125000006
10
-73.085609375000018
20
-74.163296875
10
-72.988146874999998
20
-74.207806250000004
10
-72.894106250000021
20
-74.259156250000004
10
-72.803971875000002
20
-74.317084375000036
10
-72.718196875000004
20
-74.381293749999998
10
-72.637221875000023
20
-74.451459374999999
10
-72.561459374999998
20
-74.527221875000023
10
-72.491293749999997
20
-74.608196875000004
10
-72.427084375000007
20
-74.693971875000003
10
-72.369156250000003
20
-74.784106250000022
10
-72.317806250000004
20
-74.878146874999999
10
-72.273296875
20
-74.975609375000005
10
-72.235853125000006
20
-75.076000000000022
10
-72.205668750000001
20
-75.178803125000002
10
-72.182890624999999
20
-75.283500000000004
10
-72.167643750000025
20
-75.389556249999998
10
-72.159999999999997
20
-75.496428125000023
10
-72.159999999999997
20
-75.603571875
10
-72.167643750000025
20
-75.710443750000024
10
-72.182890624999999
20
-75.816500000000005
10
-72.205668750000001
20
-75.921196875000007
10
-72.235853125000006
20
-76.024000000000001
10
-72.273296875
20
-76.124390625000004
10
-72.317806250000004
20
-76.221853125000024
10
-72.369156250000003
20
-76.315893750000015
10
-72.427084375000007
20
-76.406028125000006
10
-72.491293749999997
20
-76.491803125000004
10
-72.561459374999998
20
-76.572778124999999
10
-72.637221875000023
20
-76.648540625000024
10
-72.718196875000004
20
-76.718706249999997
10
-72.803971875000002
20
-76.782915625000001
10
-72.894106250000021
20
-76.840843750000005
10
-72.988146874999998
20
-76.892193750000004
10
-73.085609375000018
20
-76.936703125000022
10
-73.186000000000007
20
-76.974146875000002
10
-73.288803125000015
20
-77.004331250000007
10
-73.393500000000003
20
-77.027109375000023
10
-73.499556249999998
20
-77.042356249999997
10
-73.606428125000022
20
-77.049999999999997
10
-73.713571875
20
-77.049999999999997
10
-73.820443750000038
20
-77.042356249999997
10
-73.926500000000004
20
-77.027109375000023
10
-74.031196875000006
20
-77.004331250000007
10
-74.134
20
-76.974146875000002
10
-74.234390625000003
20
-76.936703125000022
10
-74.331853125000023
20
-76.892193750000004
10
-74.42589375
20
-76.840843750000005
10
-74.516028125000005
20
-76.782915625000001
10
-74.601803125000004
20
-76.718706249999997
10
-74.682778124999999
20
-76.648540625000024
10
-74.758540625000023
20
-76.572778124999999
10
-74.828706250000025
20
-76.491803125000004
10
-74.892915625000001
20
-76.406028125000006
10
-74.950843750000018
20
-76.315893750000015
10
-75.002193750000004
20
-76.221853125000024
10
-75.046703125000022
20
-76.124390625000004
10
-75.084146875000002
20
-76.024000000000001
10
-75.114331250000006
20
-75.921196875000007
10
-75.137109375000023
20
-75.816500000000005
0
LWPOLYLINE
5
107
100
AcDbEntity
8
0
100
AcDbPolyline
90
4
70
1
43
0.0
10
-91.420000000000016
20
0
10
-91.420000000000016
20
-79.680000000000007
10
0
20
-79.680000000000007
10
0
20
0
0
LWPOLYLINE
5
108
100
AcDbEntity
8
0
100
AcDbPolyline
90
4
70
1
43
0.0
10
-14.500000000000002
20
-104.50000000000001
10
-84.500000000000014
20
-104.50000000000001
10
-84.500000000000014
20
-22
10
-14.500000000000002
20
-22
0
CIRCLE
5
109
100
AcDbEntity
8
0
100
AcDbCircle
10
-58.390000000000001
20
-24.5
30
0
40
1.5000000000000018
210
0
220
0
230
1
0
ENDSEC
0
SECTION
2
OBJECTS
0
DICTIONARY
5
C
100
AcDbDictionary
3
ACAD_GROUP
350
D
3
ACAD_MLINESTYLE
350
17
0
DICTIONARY
5
D
100
AcDbDictionary
0
DICTIONARY
5
1A
330
C
100
AcDbDictionary
0
DICTIONARY
5
17
100
AcDbDictionary
0
ENDSEC
0
EOF
