0
SECTION
2
HEADER
9
$INSUNITS
70
4
9
$ACADVER
1
AC1014
9
$HANDSEED
5
FFFF
0
ENDSEC
0
SECTION
2
TABLES
0
TABLE
2
VPORT
5
8
100
AcDbSymbolTable
0
ENDTAB
0
TABLE
2
LTYPE
5
5
100
AcDbSymbolTable
0
LTYPE
5
14
100
AcDbSymbolTableRecord
100
AcDbLinetypeTableRecord
2
BYBLOCK
70
0
0
LTYPE
5
15
100
AcDbSymbolTableRecord
100
AcDbLinetypeTableRecord
2
BYLAYER
70
0
0
ENDTAB
0
TABLE
2
LAYER
5
2
100
AcDbSymbolTable
70
2
0
LAYER
5
50
100
AcDbSymbolTableRecord
100
AcDbLayerTableRecord
2
0
70
0
6
CONTINUOUS
0
ENDTAB
0
TABLE
2
STYLE
5
3
100
AcDbSymbolTable
70
1
0
STYLE
5
11
100
AcDbSymbolTableRecord
100
AcDbTextStyleTableRecord
2
STANDARD
70
0
0
ENDTAB
0
TABLE
2
VIEW
5
6
100
AcDbSymbolTable
70
0
0
ENDTAB
0
TABLE
2
UCS
5
7
100
AcDbSymbolTable
70
0
0
ENDTAB
0
TABLE
2
APPID
5
9
100
AcDbSymbolTable
70
2
0
APPID
5
12
100
AcDbSymbolTableRecord
100
AcDbRegAppTableRecord
2
ACAD
70
0
0
ENDTAB
0
TABLE
2
DIMSTYLE
5
A
100
AcDbSymbolTable
70
1
0
ENDTAB
0
TABLE
2
BLOCK_RECORD
5
1
100
AcDbSymbolTable
70
1
0
BLOCK_RECORD
5
1F
100
AcDbSymbolTableRecord
100
AcDbBlockTableRecord
2
*MODEL_SPACE
0
BLOCK_RECORD
5
1B
100
AcDbSymbolTableRecord
100
AcDbBlockTableRecord
2
*PAPER_SPACE
0
ENDTAB
0
ENDSEC
0
SECTION
2
BLOCKS
0
BLOCK
5
20
100
AcDbEntity
100
AcDbBlockBegin
2
*MODEL_SPACE
0
ENDBLK
5
21
100
AcDbEntity
100
AcDbBlockEnd
0
BLOCK
5
1C
100
AcDbEntity
100
AcDbBlockBegin
2
*PAPER_SPACE
0
ENDBLK
5
1D
100
AcDbEntity
100
AcDbBlockEnd
0
ENDSEC
0
SECTION
2
ENTITIES
0
LWPOLYLINE
5
100
100
AcDbEntity
8
0
100
AcDbPolyline
90
4
70
1
43
0.0
10
-85.859471078475252
20
38.382725391368254
10
-35.859471078475273
20
38.382725391368254
10
-27.85947107847527
20
26.38272539136825
10
-77.859471078475266
20
26.38272539136825
0
LINE
5
101
100
AcDbEntity
8
0
100
AcDbLine
10
-39.882554769558361
20
38.382725391368254
30
0
11
-39.882554769558361
21
33.382725391368254
31
0
0
LINE
5
102
100
AcDbEntity
8
0
100
AcDbLine
10
-39.882554769558361
20
33.382725391368254
30
0
11
-82.526137745141909
21
33.382725391368226
31
0
0
LINE
5
103
100
AcDbEntity
8
0
100
AcDbLine
10
-85.859471078475252
20
38.382725391368254
30
0
11
-92.859471078475252
21
38.382725391368254
31
0
0
LINE
5
104
100
AcDbEntity
8
0
100
AcDbLine
10
-92.859471078475252
20
38.382725391368254
30
0
11
-92.859471078475252
21
36.382725391368254
31
0
0
LINE
5
105
100
AcDbEntity
8
0
100
AcDbLine
10
-92.859471078475252
20
36.382725391368254
30
0
11
-84.526137745141938
21
36.382725391368254
31
0
0
LINE
5
106
100
AcDbEntity
8
0
100
AcDbLine
10
-77.859471078475266
20
26.38272539136825
30
0
11
-92.859471078475252
21
26.382725391368254
31
0
0
LINE
5
107
100
AcDbEntity
8
0
100
AcDbLine
10
-92.859471078475252
20
26.382725391368254
30
0
11
-92.859471078475252
21
36.382725391368254
31
0
0
LWPOLYLINE
5
108
100
AcDbEntity
8
0
100
AcDbPolyline
90
6
70
1
43
0.0
10
-92.859471078475252
20
26.382725391368254
10
-27.859471078475266
20
26.382725391368254
10
-37.859471078475266
20
26.382725391368254
10
-30.859471078475266
20
21.882725391368254
10
-27.859471078475266
20
21.882725391368254
10
-92.859471078475252
20
21.882725391368254
0
LINE
5
109
100
AcDbEntity
8
0
100
AcDbLine
10
-27.859471078475266
20
26.382725391368254
30
0
11
-27.859471078475266
21
21.882725391368254
31
0
0
LINE
5
110
100
AcDbEntity
8
0
100
AcDbLine
10
-40.859471078475266
20
26.382725391368254
30
0
11
-40.859471078475266
21
21.882725391368254
31
0
0
LINE
5
111
100
AcDbEntity
8
0
100
AcDbLine
10
-73.859471078475266
20
26.382725391368254
30
0
11
-73.859471078475266
21
21.882725391368254
31
0
0
LINE
5
112
100
AcDbEntity
8
0
100
AcDbLine
10
-40.859471078475266
20
25.132725391368254
30
0
11
-73.859471078475266
21
25.132725391368254
31
0
0
LINE
5
113
100
AcDbEntity
8
0
100
AcDbLine
10
-73.859471078475266
20
23.132725391368254
30
0
11
-40.859471078475266
21
23.132725391368254
31
0
0
LINE
5
114
100
AcDbEntity
8
0
100
AcDbLine
10
-43.859471078475266
20
25.132725391368254
30
0
11
-43.859471078475266
21
23.132725391368254
31
0
0
LINE
5
115
100
AcDbEntity
8
0
100
AcDbLine
10
-70.859471078475266
20
25.132725391368254
30
0
11
-70.859471078475266
21
23.132725391368254
31
0
0
LINE
5
116
100
AcDbEntity
8
0
100
AcDbLine
10
-64.859471078475266
20
26.382725391368254
30
0
11
-64.859471078475266
21
34.882725391368254
31
0
0
LINE
5
117
100
AcDbEntity
8
0
100
AcDbLine
10
-64.859471078475266
20
34.882725391368254
30
0
11
-88.859471078475281
21
34.882725391368254
31
0
0
LWPOLYLINE
5
118
100
AcDbEntity
8
0
100
AcDbPolyline
90
4
70
1
43
0.0
10
-27.859471078475266
20
21.882725391368254
10
-24.859471078475266
20
21.882725391368254
10
-24.859471078475266
20
26.382725391368254
10
-27.859471078475266
20
26.382725391368254
0
LINE
5
119
100
AcDbEntity
8
0
100
AcDbLine
10
-92.859471078475252
20
35.382725391368254
30
0
11
-83.859471078475266
21
35.382725391368247
31
0
0
ENDSEC
0
SECTION
2
OBJECTS
0
DICTIONARY
5
C
100
AcDbDictionary
3
ACAD_GROUP
350
D
3
ACAD_MLINESTYLE
350
17
0
DICTIONARY
5
D
100
AcDbDictionary
0
DICTIONARY
5
1A
330
C
100
AcDbDictionary
0
DICTIONARY
5
17
100
AcDbDictionary
0
ENDSEC
0
EOF
